<svg width="425" height="425" viewBox="0 0 425 425" fill="none" xmlns="http://www.w3.org/2000/svg">
<path d="M212 356C167.333 356 127 343 91 317C54.3333 291 25.3333 256 4 212C25.3333 168 54.3333 133 91 107C127 81 167.333 68 212 68C254.667 68 294.667 81.6667 332 109C369.333 135.667 398.667 170 420 212C398.667 254 369.333 288.667 332 316C294.667 342.667 254.667 356 212 356ZM212 308C238.667 308 261.333 298.667 280 280C298.667 261.333 308 238.667 308 212C308 185.333 298.667 162.667 280 144C261.333 125.333 238.667 116 212 116C185.333 116 162.667 125.333 144 144C125.333 162.667 116 185.333 116 212C116 238.667 125.333 261.333 144 280C162.667 298.667 185.333 308 212 308ZM212 268C196.667 268 183.667 262.667 173 252C161.667 240.667 156 227.333 156 212C156 196.667 161.667 183.667 173 173C183.667 161.667 196.667 156 212 156C227.333 156 240.667 161.667 252 173C262.667 183.667 268 196.667 268 212C268 227.333 262.667 240.667 252 252C240.667 262.667 227.333 268 212 268Z" fill="black"/>
</svg>
