<svg width="425" height="425" viewBox="0 0 425 425" fill="none" xmlns="http://www.w3.org/2000/svg">
<path d="M48 16L408 376L376 408L302 334C274.667 348.667 244.667 356 212 356C169.333 356 130 343 94 317C57.3333 291 27.3333 256 4 212C14 194 26.6667 176 42 158C56.6667 139.333 70.6667 125.333 84 116L16 48L48 16ZM308 212C308 185.333 298.667 162.667 280 144C261.333 125.333 238.667 116 212 116L169 73C185.667 69.6667 200 68 212 68C255.333 68 295.333 81.3333 332 108C368 134.667 397.333 169.333 420 212C416 220.667 409.667 231.333 401 244C392.333 256.667 383.333 268 374 278L308 212ZM212 308C230 308 246.667 303.333 262 294L233 265C226.333 267 219.333 268 212 268C196.667 268 183.667 262.667 173 252C161.667 240.667 156 227.333 156 212C156 206 157.333 199.333 160 192L130 162C120.667 177.333 116 194 116 212C116 238.667 125.333 261.333 144 280C162.667 298.667 185.333 308 212 308Z" fill="black"/>
</svg>
