<svg width="286" height="286" viewBox="0 0 286 286" fill="none" xmlns="http://www.w3.org/2000/svg">
<path d="M64.971 118.204C64.0742 140.101 64.0742 159.26 56 188C72.5964 182.526 84.8071 171.65 90.9881 165.191C107.136 148.312 111.776 136.451 116.107 118.204C120.144 101.194 116.752 99.5 123.733 73.0412C127.464 58.8995 131.657 47.0386 138.984 37.4589C148.404 25.1418 152.889 21.0358 165 11C141.675 14.1933 132.255 17.5635 115.659 25.1418C99.6458 32.4533 84.2594 44.7576 76.1852 58.8995C66.3129 76.1898 65.9795 93.5906 64.971 118.204Z" fill="#0B1523" stroke="#FAFAFA"/>
<path d="M201.511 37.1762C223.079 31.7554 242.115 27.7697 269 14C266.991 31.1538 258.71 45.1984 253.57 52.5064C240.138 71.6001 229.313 78.5446 212.079 86.5198C196.014 93.9533 193.63 91.0337 168.786 103.273C155.506 109.815 144.589 116.329 136.586 125.392C126.295 137.044 123.143 142.226 115.675 156C114.027 132.828 115.428 123.037 119.527 105.446C123.482 88.4731 132.527 71.0665 144.908 60.3335C160.046 47.2108 177.266 43.2693 201.511 37.1762Z" fill="#0B1523" stroke="#FAFAFA"/>
<path d="M179.876 166.484C158.514 171.594 139.665 175.265 113 189C115.082 171.037 123.348 156.509 128.472 148.973C141.862 129.281 152.606 122.28 169.694 114.369C185.624 106.996 194.977 106.662 212.604 97.9444C225.773 91.4331 236.607 84.886 244.572 75.5843C254.813 63.6242 257.959 58.2662 265.42 44C266.924 68.3832 265.483 78.6293 261.333 96.9954C257.328 114.716 248.287 132.755 235.983 143.693C220.939 157.067 203.887 160.74 179.876 166.484Z" fill="#0B1523" stroke="#FAFAFA"/>
<path d="M161.392 223.859C139.956 221.085 121.336 217.858 92 221.245C100.212 205.258 112.907 194.649 120.262 189.44C139.478 175.83 151.813 173.099 170.3 171.761C187.533 170.512 196.252 173.497 215.518 171.597C229.912 170.177 242.168 167.902 252.754 162.051C266.366 154.528 271.137 150.65 283 140C275.833 163.227 270.917 172.256 260.661 187.889C250.766 202.972 236.127 216.576 220.978 222.42C202.455 229.566 185.487 226.976 161.392 223.859Z" fill="#0B1523" stroke="#FAFAFA"/>
<path d="M159.317 0.736861C148.088 9.99148 143.522 14.2678 134.349 26.1535C126.892 35.8156 122.64 47.7576 118.871 61.9126C115.341 75.1696 114.431 82.2357 113.894 88.1206C113.814 88.9967 113.743 89.8454 113.672 90.6835C113.27 95.4588 112.896 99.8884 111.172 107.087C108.99 116.197 106.738 123.679 103.01 130.983C99.2842 138.285 94.0721 145.43 85.9489 153.843C79.8504 160.161 67.922 170.699 51.7372 176.227C58.9015 150.595 59.5855 132.557 60.3159 113.295C60.392 111.288 60.4686 109.268 60.5531 107.224C60.5917 106.291 60.6293 105.368 60.6665 104.456C61.6117 81.2707 62.2887 64.6636 71.8036 48.1491C79.8856 34.1222 95.3188 21.8789 111.412 14.5973C127.7 7.22757 137.099 3.85349 159.317 0.736861Z" fill="#FAFAFA" stroke="#0C0D0E"/>
<path d="M142.627 48.0146L142.348 47.6974L142.627 48.0145C157.278 35.1244 173.857 30.9053 196.992 25.0176C197.904 24.7857 198.825 24.5512 199.757 24.3134C201.796 23.7934 203.813 23.286 205.817 22.7821C225.057 17.9426 243.071 13.4117 267.389 0.879314C265.185 17.9743 257.052 31.9573 251.959 39.306C245.176 49.092 239.065 55.7455 232.488 60.972C225.908 66.2002 218.844 70.0159 210.127 74.11C203.238 77.3453 198.856 78.6604 194.134 80.0775C193.305 80.3263 192.465 80.5782 191.6 80.8442C185.79 82.6301 178.869 85.0359 166.26 91.3405C152.797 98.0719 141.664 104.806 133.489 114.201L133.866 114.529L133.489 114.201C123.419 125.774 120.066 131.175 113.065 144.228C111.588 121.695 113.034 111.732 117.074 94.1341C121.063 76.7562 130.183 58.9627 142.627 48.0146Z" fill="#FAFAFA" stroke="#0C0D0E"/>
<path d="M178.07 155.532C176.037 156.019 174.026 156.493 172.027 156.964C152.849 161.485 134.89 165.719 110.61 178.125C112.892 160.333 121.075 145.954 126.189 138.426C132.995 128.406 139.115 121.635 145.689 116.365C152.266 111.094 159.318 107.309 168.016 103.279L167.837 102.891L168.016 103.279C175.499 99.8115 181.55 97.876 187.692 95.9113C188.189 95.7524 188.686 95.5933 189.185 95.4331C195.854 93.2921 202.759 90.9736 211.78 86.5088C225.22 79.8558 236.342 73.1372 244.531 63.5624C254.615 51.7747 257.983 46.234 265.017 32.8274C266.366 56.3812 264.873 66.7348 260.753 84.9818C256.686 103 247.508 121.306 235.062 132.382C220.412 145.42 203.89 149.366 180.826 154.874C179.917 155.091 178.999 155.31 178.07 155.532Z" fill="#FAFAFA" stroke="#0C0D0E"/>
<path d="M213.798 163.225L213.748 162.727L213.798 163.225C228.578 161.74 241.238 159.367 252.195 153.257C265.679 145.739 270.753 141.715 281.984 131.591C274.91 154.273 269.87 163.503 259.614 179.237C249.486 194.776 234.529 208.764 219.109 214.772C200.958 221.843 184.29 219.679 161.016 216.657C160.1 216.538 159.173 216.417 158.236 216.296C156.184 216.031 154.156 215.761 152.141 215.494C132.81 212.925 114.707 210.52 87.8764 213.567C96.2731 197.6 108.925 186.958 116.315 181.681C126.148 174.659 134.198 170.456 142.138 167.831C150.081 165.205 157.938 164.148 167.406 163.446C175.549 162.843 181.827 163.173 188.2 163.509C188.716 163.536 189.232 163.563 189.75 163.59C196.674 163.947 203.879 164.221 213.798 163.225Z" fill="#FAFAFA" stroke="#0C0D0E"/>
<path d="M39.5063 174.981L38.8949 175.66C38.2195 176.41 38.2801 177.566 39.0302 178.241L97.4315 230.826C98.1816 231.501 99.3371 231.441 100.013 230.69L100.624 230.011C101.299 229.261 101.239 228.106 100.489 227.43L42.0874 174.846C41.3373 174.17 40.1817 174.231 39.5063 174.981Z" fill="#0C0D0E"/>
<path d="M32.7802 182.449L28.5 187.203C27.1492 188.703 27.2703 191.014 28.7705 192.365L83.7764 241.893C85.2766 243.244 87.5878 243.122 88.9385 241.622L93.2187 236.869C94.5695 235.368 94.4484 233.057 92.9482 231.706L37.9423 182.179C36.4421 180.828 34.1309 180.949 32.7802 182.449Z" fill="#0C0D0E"/>
<path d="M13.362 264.558C-3.21246 249.533 -4.5507 223.828 10.373 207.142L21.0454 195.21C22.3877 193.709 24.6844 193.588 26.1752 194.94L80.7982 244.452C82.2892 245.803 82.4091 248.115 81.0669 249.616L70.3942 261.548C55.4709 278.234 29.9365 279.581 13.362 264.558Z" fill="#0C0D0E"/>
<path d="M42.9268 187.471L42.3153 188.151C41.9776 188.526 42.0079 189.103 42.3829 189.441L100.784 242.026C101.159 242.363 101.737 242.333 102.075 241.958L102.686 241.279C103.024 240.904 102.994 240.326 102.619 239.989L44.2173 187.404C43.8422 187.066 43.2645 187.096 42.9268 187.471Z" fill="#0B1523" stroke="#FAFAFA"/>
<path d="M36.2006 194.941L31.9205 199.695C30.9074 200.82 30.9982 202.553 32.1234 203.566L87.1292 253.094C88.2544 254.107 89.9878 254.016 91.0009 252.891L95.281 248.137C96.2941 247.012 96.2033 245.279 95.0781 244.266L40.0722 194.738C38.9471 193.725 37.2137 193.816 36.2006 194.941Z" fill="#0B1523" stroke="#FAFAFA"/>
<path d="M13.2431 218.811L24.024 206.905C25.041 205.783 26.7811 205.691 27.9106 206.703L83.0898 256.108C84.219 257.119 84.3098 258.849 83.2934 259.973L72.512 271.879C57.7751 288.155 32.5613 289.468 16.1946 274.815C-0.172247 260.16 -1.49366 235.087 13.2431 218.811Z" fill="#0B1523" stroke="#FAFAFA"/>
<path d="M39.2665 175.994L39.8779 175.315C40.3685 174.77 41.208 174.727 41.7529 175.217L100.154 227.802C100.699 228.292 100.743 229.132 100.252 229.677L99.641 230.356C99.1503 230.901 98.3109 230.945 97.766 230.454L39.3647 177.869C38.8198 177.379 38.7759 176.539 39.2665 175.994Z" fill="#FAFAFA" stroke="#0C0D0E"/>
<path d="M28.8716 187.538L33.1517 182.784C34.3177 181.489 36.3128 181.385 37.6077 182.551L92.6136 232.078C93.9086 233.244 94.0131 235.239 92.8471 236.534L88.567 241.288C87.401 242.583 85.406 242.687 84.111 241.521L29.1051 191.994C27.8101 190.828 27.7056 188.833 28.8716 187.538Z" fill="#FAFAFA" stroke="#0C0D0E"/>
<path d="M21.4181 195.544L21.4181 195.544C22.5757 194.249 24.5544 194.145 25.8393 195.31L25.8394 195.31L80.4623 244.823L80.4624 244.823C81.7494 245.989 81.8535 247.987 80.6942 249.283L70.0216 261.215L70.3197 261.482L70.0215 261.215C55.2829 277.694 30.0665 279.024 13.6978 264.187C-2.67279 249.348 -3.99501 223.956 10.7457 207.475L21.4181 195.544Z" fill="#FAFAFA" stroke="#0C0D0E"/>
</svg>
