<svg width="286" height="286" viewBox="0 0 286 286" fill="none" xmlns="http://www.w3.org/2000/svg">
<path d="M63.971 117.204C63.0742 139.101 63.0742 158.26 55 187C71.5964 181.526 83.8071 170.65 89.9881 164.191C106.136 147.312 110.776 135.451 115.107 117.204C119.144 100.194 115.752 98.5 122.733 72.0412C126.464 57.8995 130.657 46.0386 137.984 36.4589C147.404 24.1418 151.889 20.0358 164 10C140.675 13.1933 131.255 16.5635 114.659 24.1418C98.6458 31.4533 83.2594 43.7576 75.1852 57.8995C65.3129 75.1898 64.9795 92.5906 63.971 117.204Z" fill="white" stroke="#0C0D0E" stroke-width="2"/>
<path d="M200.949 37.3394C222.378 31.8804 241.289 27.8667 268 14C266.004 31.2746 257.777 45.4181 252.67 52.7776C239.325 72.0057 228.571 78.9991 211.448 87.0305C195.488 94.5163 193.119 91.5762 168.436 103.902C155.243 110.489 144.397 117.05 136.446 126.176C126.222 137.91 123.091 143.129 115.671 157C114.033 133.665 115.425 123.805 119.498 106.09C123.427 88.9976 132.413 71.4684 144.714 60.6598C159.754 47.4447 176.862 43.4755 200.949 37.3394Z" fill="white" stroke="#0C0D0E" stroke-width="2"/>
<path d="M180.439 166.484C159.216 171.594 140.491 175.265 114 189C116.068 171.037 124.281 156.509 129.371 148.973C142.673 129.281 153.347 122.28 170.323 114.369C186.149 106.996 195.441 106.662 212.953 97.9444C226.036 91.4331 236.799 84.886 244.712 75.5843C254.887 63.6242 258.012 58.2662 265.424 44C266.918 68.3832 265.487 78.6293 261.363 96.9954C257.385 114.716 248.403 132.755 236.179 143.693C221.233 157.067 204.293 160.74 180.439 166.484Z" fill="white" stroke="#0C0D0E" stroke-width="2"/>
<path d="M161.392 223.895C139.956 221.153 121.336 217.964 92 221.311C100.212 205.508 112.907 195.02 120.262 189.872C139.478 176.418 151.813 173.719 170.3 172.395C187.533 171.161 196.252 174.112 215.518 172.234C229.912 170.831 242.168 168.581 252.754 162.798C266.366 155.361 271.137 151.527 283 141C275.833 163.96 270.917 172.885 260.661 188.339C250.766 203.248 236.127 216.696 220.978 222.473C202.455 229.537 185.487 226.976 161.392 223.895Z" fill="white" stroke="#0C0D0E" stroke-width="2"/>
<path d="M112.21 107.204L111.724 107.086C109.522 116.196 107.249 123.678 103.488 130.981C99.7281 138.283 94.4686 145.428 86.2715 153.842C80.1166 160.16 68.0763 170.702 51.7389 176.229C58.9687 150.596 59.659 132.558 60.396 113.295C60.4728 111.288 60.5501 109.268 60.6354 107.224C60.6743 106.291 60.7123 105.369 60.7498 104.456C61.7036 81.2709 62.3867 64.6647 71.9878 48.1508C80.1432 34.124 95.7171 21.8801 111.958 14.598C128.396 7.2275 137.881 3.85322 160.305 0.736273C148.975 9.99019 144.368 14.2665 135.112 26.1518C127.587 35.814 123.296 47.7563 119.492 61.9115C115.931 75.1687 115.012 82.235 114.471 88.1201C114.39 88.9964 114.318 89.8451 114.247 90.6832C113.84 95.4584 113.464 99.8878 111.724 107.086L112.21 107.204Z" fill="#0C0D0E" stroke="white"/>
<path d="M142.627 48.0146L142.348 47.6974L142.627 48.0145C157.278 35.1244 173.857 30.9053 196.992 25.0176C197.904 24.7857 198.825 24.5512 199.757 24.3134C201.796 23.7934 203.813 23.286 205.817 22.7821C225.057 17.9426 243.071 13.4117 267.389 0.879314C265.185 17.9743 257.052 31.9573 251.959 39.306C245.176 49.092 239.065 55.7455 232.488 60.972C225.908 66.2002 218.844 70.0159 210.127 74.11C203.238 77.3453 198.856 78.6604 194.134 80.0775C193.305 80.3263 192.465 80.5782 191.6 80.8442C185.79 82.6301 178.869 85.0359 166.26 91.3405C152.797 98.0719 141.664 104.806 133.489 114.201L133.866 114.529L133.489 114.201C123.419 125.774 120.066 131.175 113.065 144.228C111.588 121.695 113.034 111.732 117.074 94.1341C121.063 76.7562 130.183 58.9627 142.627 48.0146Z" fill="#0C0D0E" stroke="white"/>
<path d="M178.07 156.377C176.036 156.867 174.025 157.345 172.027 157.819C152.848 162.37 134.889 166.632 110.61 179.122C112.891 161.207 121.076 146.728 126.19 139.148C132.996 129.061 139.116 122.244 145.691 116.939C152.267 111.632 159.319 107.821 168.018 103.764C175.5 100.273 181.551 98.3244 187.693 96.3464C188.19 96.1864 188.687 96.0262 189.186 95.865C195.855 93.7095 202.761 91.3753 211.781 86.8803C225.221 80.1822 236.343 73.4182 244.532 63.779C254.616 51.9122 257.983 46.3343 265.017 32.8383C266.366 56.5527 264.873 66.9769 260.753 85.348C256.686 103.489 247.507 121.919 235.061 133.071C220.411 146.196 203.889 150.169 180.825 155.714C179.917 155.933 178.998 156.153 178.07 156.377Z" fill="#0C0D0E" stroke="white"/>
<path d="M213.797 162.861L213.755 162.435L213.797 162.861C228.577 161.393 241.237 159.046 252.193 153.004C265.677 145.57 270.751 141.591 281.982 131.58C274.909 154.002 269.869 163.128 259.616 178.685C249.488 194.05 234.532 207.883 219.111 213.824C200.959 220.818 184.289 218.677 161.016 215.688C160.1 215.57 159.173 215.451 158.235 215.332C156.183 215.069 154.155 214.803 152.14 214.538C132.81 211.998 114.709 209.62 87.881 212.632C96.277 196.85 108.924 186.33 116.312 181.112C126.146 174.169 134.196 170.013 142.137 167.416C150.08 164.819 157.938 163.774 167.405 163.08C175.549 162.484 181.827 162.81 188.2 163.142C188.716 163.169 189.232 163.196 189.75 163.222C196.674 163.575 203.879 163.846 213.797 162.861Z" fill="#0C0D0E" stroke="white"/>
<path d="M39.5112 175.002L38.8996 175.681C38.2242 176.431 38.2847 177.587 39.0349 178.263L97.4434 230.854C98.1935 231.529 99.3493 231.469 100.025 230.719L100.636 230.039C101.312 229.289 101.251 228.133 100.501 227.458L42.0925 174.867C41.3424 174.191 40.1866 174.252 39.5112 175.002Z" fill="#0C0D0E"/>
<path d="M32.7842 182.472L28.5035 187.226C27.1526 188.727 27.2737 191.038 28.7741 192.389L83.7867 241.923C85.2871 243.273 87.5985 243.152 88.9495 241.652L93.2302 236.898C94.5811 235.397 94.46 233.086 92.9596 231.735L37.947 182.201C36.4466 180.851 34.1352 180.972 32.7842 182.472Z" fill="#0C0D0E"/>
<path d="M13.362 265.429C-3.21246 250.219 -4.5507 224.196 10.373 207.304L21.0454 195.225C22.3877 193.706 24.6844 193.583 26.1752 194.951L80.7982 245.075C82.2892 246.443 82.4091 248.783 81.0669 250.303L70.3942 262.382C55.4709 279.274 29.9365 280.638 13.362 265.429Z" fill="#0C0D0E"/>
<path d="M42.932 187.494L42.3204 188.173C41.9827 188.548 42.013 189.126 42.3881 189.464L100.797 242.055C101.172 242.393 101.75 242.363 102.087 241.988L102.699 241.308C103.036 240.933 103.006 240.356 102.631 240.018L44.2227 187.427C43.8476 187.089 43.2697 187.119 42.932 187.494Z" fill="white" stroke="#0C0D0E" stroke-width="2"/>
<path d="M36.2051 194.965L31.9244 199.719C30.9112 200.844 31.0021 202.578 32.1273 203.591L87.14 253.125C88.2652 254.138 89.9988 254.047 91.012 252.922L95.2927 248.167C96.3059 247.042 96.2151 245.309 95.0898 244.295L40.0772 194.762C38.9519 193.749 37.2183 193.839 36.2051 194.965Z" fill="white" stroke="#0C0D0E" stroke-width="2"/>
<path d="M14.2431 218.811L25.024 206.905C26.041 205.783 27.7811 205.691 28.9106 206.703L84.0898 256.108C85.219 257.119 85.3098 258.849 84.2934 259.973L73.512 271.879C58.7751 288.155 33.5613 289.468 17.1946 274.815C0.827753 260.16 -0.49366 235.087 14.2431 218.811Z" fill="white" stroke="#0C0D0E" stroke-width="2"/>
<path d="M39.2712 176.016L39.8827 175.337C40.3734 174.792 41.213 174.748 41.758 175.238L100.166 227.83C100.711 228.32 100.755 229.16 100.265 229.705L99.6532 230.384C99.1625 230.929 98.3229 230.973 97.7779 230.482L39.3695 177.891C38.8245 177.4 38.7805 176.561 39.2712 176.016Z" fill="#0C0D0E" stroke="white"/>
<path d="M28.8751 187.561L33.1558 182.807C34.322 181.511 36.3173 181.407 37.6124 182.573L92.625 232.107C93.9202 233.273 94.0248 235.268 92.8586 236.563L88.5779 241.317C87.4118 242.613 85.4164 242.717 84.1213 241.551L29.1087 192.017C27.8135 190.851 27.7089 188.856 28.8751 187.561Z" fill="#0C0D0E" stroke="white"/>
<path d="M21.4201 195.556L21.4201 195.556L10.7477 207.635C10.7477 207.635 10.7477 207.635 10.7477 207.635C-3.99619 224.323 -2.67299 250.035 13.7001 265.06M21.4201 195.556L13.7001 265.06M21.4201 195.556C22.5779 194.246 24.5533 194.141 25.8371 195.32L25.8372 195.32L80.4601 245.444L80.4602 245.444C81.7496 246.626 81.8547 248.656 80.6922 249.972C80.6922 249.972 80.6922 249.972 80.6922 249.972L70.0195 262.051L70.3503 262.343L70.0195 262.051C55.2808 278.734 30.0677 280.08 13.7001 265.06M21.4201 195.556L13.362 265.429L13.7001 265.06" fill="#0C0D0E" stroke="white"/>
</svg>
