<svg width="286" height="286" viewBox="0 0 286 286" fill="none" xmlns="http://www.w3.org/2000/svg">
<path d="M283 143C283 220.32 220.32 283 143 283C65.6801 283 3 220.32 3 143C3 65.6801 65.68 3.00005 143 3.00005C220.32 3.00005 283 65.6801 283 143ZM143.5 245.5C202.874 245.5 245.5 202.772 245.5 143C245.5 81.236 197.048 39.5 143 39.5C88.8824 39.5 41 83.8041 41 143C41 202.792 84.1459 245.5 143.5 245.5Z" stroke="white" stroke-width="6"/>
<path d="M82.7395 135.533C82.0085 153.453 82.0085 169.133 75.4266 192.653C88.9555 188.173 98.9093 179.273 103.948 173.986C117.111 160.173 120.893 150.466 124.424 135.533C127.715 121.613 124.95 120.226 130.64 98.5731C133.682 86.9998 137.1 77.2931 143.072 69.4533C150.751 59.3731 154.408 56.0129 164.28 47.7998C145.266 50.4131 137.587 53.1712 124.059 59.3731C111.005 65.3568 98.4628 75.4264 91.8809 86.9998C83.8334 101.15 83.5616 115.39 82.7395 135.533Z" fill="#0B1523" stroke="#FAFAFA"/>
<path d="M194.627 69.8247C212.223 65.3718 227.753 62.0977 249.687 50.7866C248.048 64.8776 241.293 76.4145 237.099 82.4177C226.14 98.1021 217.309 103.807 203.248 110.358C190.142 116.464 188.197 114.066 167.928 124.12C157.094 129.494 148.188 134.845 141.658 142.289C133.263 151.861 130.691 156.117 124.598 167.432C123.254 148.398 124.397 140.355 127.741 125.905C130.967 111.963 138.347 97.6638 148.448 88.8472C160.798 78.0676 174.847 74.8299 194.627 69.8247Z" fill="#0B1523" stroke="#FAFAFA"/>
<path d="M177.456 175.437C159.992 179.602 144.584 182.595 122.785 193.79C124.486 179.148 131.244 167.307 135.433 161.164C146.379 145.114 155.162 139.407 169.132 132.96C182.154 126.95 189.8 126.677 204.211 119.572C214.976 114.264 223.833 108.928 230.344 101.346C238.717 91.5979 241.288 87.2307 247.388 75.6025C248.617 95.4769 247.439 103.828 244.046 118.798C240.772 133.242 233.382 147.945 223.323 156.86C211.024 167.762 197.085 170.756 177.456 175.437Z" fill="#0B1523" stroke="#FAFAFA"/>
<path d="M161.952 222.391C144.45 220.151 129.246 217.546 105.293 220.28C111.998 207.371 122.364 198.805 128.369 194.599C144.06 183.609 154.131 181.404 169.226 180.323C183.297 179.315 190.416 181.725 206.146 180.191C217.899 179.045 227.906 177.207 236.55 172.483C247.664 166.408 251.559 163.277 261.246 154.677C255.394 173.432 251.38 180.723 243.006 193.346C234.927 205.525 222.974 216.51 210.605 221.229C195.48 226.999 181.626 224.908 161.952 222.391Z" fill="#0B1523" stroke="#FAFAFA"/>
<path d="M160.72 40.3238C151.637 47.7591 147.867 51.2876 140.365 60.933L140.76 61.24L140.365 60.933C134.204 68.8553 130.693 78.6434 127.584 90.2302C124.671 101.085 123.92 106.873 123.477 111.694C123.411 112.412 123.352 113.107 123.294 113.793C122.962 117.7 122.654 121.318 121.234 127.202C119.435 134.655 117.58 140.77 114.51 146.738C111.442 152.703 107.15 158.544 100.455 165.424L100.813 165.773L100.455 165.424C95.4501 170.569 85.6816 179.135 72.432 183.667C78.3001 162.767 78.8632 148.032 79.464 132.309C79.5267 130.666 79.5899 129.013 79.6596 127.341C79.6913 126.58 79.7222 125.828 79.7527 125.085C80.5327 106.101 81.0903 92.5324 88.9258 79.0375C95.579 67.5791 108.29 57.57 121.551 51.6159C134.9 45.6226 142.632 42.8609 160.72 40.3238Z" fill="#FAFAFA" stroke="#0C0D0E"/>
<path d="M193.212 59.5473C194.884 59.1223 196.538 58.7077 198.182 58.2957C213.924 54.3503 228.673 50.6537 248.551 40.4651C246.714 54.3382 240.09 65.6836 235.933 71.6597C230.374 79.6526 225.367 85.0834 219.981 89.3484C214.593 93.615 208.805 96.7302 201.658 100.075C196.014 102.717 192.425 103.79 188.553 104.948C187.873 105.151 187.184 105.357 186.473 105.575C181.703 107.036 176.022 109.004 165.676 114.159C154.631 119.662 145.486 125.172 138.768 132.865C130.574 142.249 127.797 146.674 122.153 157.149C120.976 138.962 122.166 130.839 125.459 116.545C128.728 102.356 136.201 87.8316 146.39 78.8992L146.06 78.5233L146.39 78.8992C158.39 68.3784 171.968 64.9349 190.953 60.1205C191.698 59.9317 192.451 59.7408 193.212 59.5473Z" fill="#FAFAFA" stroke="#0C0D0E"/>
<path d="M175.485 166.618C173.824 167.016 172.182 167.403 170.55 167.788C154.93 171.472 140.292 174.924 120.535 185.003C122.426 170.568 129.064 158.903 133.219 152.783C138.772 144.604 143.763 139.08 149.123 134.782C154.485 130.483 160.235 127.394 167.335 124.103L167.125 123.649L167.335 124.103C173.44 121.273 178.375 119.693 183.391 118.088C183.797 117.958 184.203 117.828 184.61 117.698C190.057 115.948 195.7 114.052 203.072 110.402C214.049 104.966 223.144 99.4703 229.844 91.6337C238.01 82.0838 240.787 77.5467 246.429 66.8021C247.497 85.801 246.273 94.239 242.931 109.052C239.613 123.759 232.125 138.694 221.981 147.727C210.036 158.362 196.567 161.58 177.725 166.082C176.986 166.259 176.24 166.437 175.485 166.618Z" fill="#FAFAFA" stroke="#0C0D0E"/>
<path d="M159.053 215.701C157.376 215.486 155.72 215.268 154.075 215.051C138.329 212.975 123.572 211.03 101.744 213.47C108.592 200.638 118.851 192.078 124.856 187.823C132.882 182.137 139.448 178.736 145.922 176.612C152.399 174.488 158.807 173.632 166.537 173.063C173.181 172.575 178.303 172.843 183.509 173.114C183.93 173.136 184.351 173.158 184.774 173.18C190.43 173.47 196.32 173.692 204.427 172.884C216.501 171.68 226.855 169.756 235.821 164.796C246.74 158.755 250.914 155.494 259.917 147.45C254.195 165.585 250.082 173.043 241.76 185.712C233.496 198.292 221.295 209.611 208.724 214.471C193.922 220.193 180.33 218.442 161.314 215.992C160.568 215.896 159.815 215.799 159.053 215.701Z" fill="#FAFAFA" stroke="#0C0D0E"/>
<path d="M62.4224 182.563L61.9228 183.118C61.371 183.731 61.4204 184.675 62.0333 185.227L109.753 228.194C110.366 228.746 111.31 228.697 111.862 228.084L112.362 227.529C112.914 226.916 112.864 225.972 112.251 225.42L64.5314 182.453C63.9185 181.901 62.9743 181.95 62.4224 182.563Z" fill="#0C0D0E"/>
<path d="M56.9265 188.666L53.4291 192.55C52.3254 193.776 52.4244 195.665 53.6502 196.768L98.5956 237.238C99.8214 238.341 101.71 238.242 102.814 237.016L106.311 233.132C107.415 231.906 107.316 230.018 106.09 228.914L61.1445 188.445C59.9186 187.342 58.0302 187.441 56.9265 188.666Z" fill="#0C0D0E"/>
<path d="M41.1285 255.862C27.5003 243.59 26.3999 222.595 38.6709 208.966L47.4462 199.221C48.5499 197.995 50.4384 197.896 51.6642 199L96.5775 239.44C97.8035 240.544 97.9021 242.432 96.7985 243.658L88.0229 253.404C75.7523 267.032 54.7568 268.132 41.1285 255.862Z" fill="#0C0D0E"/>
<path d="M65.2173 192.77L64.7176 193.325C64.4417 193.631 64.4664 194.103 64.7729 194.379L112.493 237.346C112.799 237.622 113.271 237.597 113.547 237.291L114.047 236.736C114.323 236.43 114.298 235.957 113.992 235.681L66.2718 192.714C65.9653 192.438 65.4932 192.463 65.2173 192.77Z" fill="#0B1523" stroke="#FAFAFA"/>
<path d="M59.7214 198.873L56.2241 202.757C55.3963 203.677 55.4705 205.093 56.3899 205.921L101.335 246.39C102.255 247.218 103.671 247.143 104.499 246.224L107.996 242.34C108.824 241.42 108.75 240.004 107.83 239.176L62.8849 198.707C61.9655 197.879 60.5492 197.954 59.7214 198.873Z" fill="#0B1523" stroke="#FAFAFA"/>
<path d="M41.4658 219.173L50.241 209.427C51.0689 208.508 52.4852 208.433 53.4046 209.261L98.318 249.702C99.2371 250.529 99.3111 251.945 98.4838 252.865L89.7082 262.611C77.713 275.933 57.19 277.008 43.8682 265.014C30.5463 253.018 29.4708 232.495 41.4658 219.173Z" fill="#0B1523" stroke="#FAFAFA"/>
<path d="M62.2944 183.453L62.794 182.898C63.1611 182.49 63.7892 182.457 64.1969 182.824L111.917 225.792C112.324 226.159 112.357 226.787 111.99 227.194L111.491 227.749C111.123 228.157 110.495 228.19 110.088 227.823L62.3679 184.856C61.9602 184.489 61.9273 183.861 62.2944 183.453Z" fill="#FAFAFA" stroke="#0C0D0E"/>
<path d="M53.8007 192.885L57.298 189.001C58.217 187.98 59.7893 187.898 60.8099 188.817L105.755 229.286C106.776 230.205 106.858 231.777 105.939 232.798L102.442 236.682C101.523 237.702 99.9507 237.785 98.9302 236.866L53.9848 196.397C52.9642 195.478 52.8818 193.906 53.8007 192.885Z" fill="#FAFAFA" stroke="#0C0D0E"/>
<path d="M47.8177 199.556L47.8178 199.555C48.7368 198.535 50.309 198.452 51.3295 199.371L51.3296 199.371L96.2429 239.812L96.243 239.812C97.2636 240.73 97.3459 242.303 96.4269 243.323C96.4269 243.323 96.4269 243.324 96.4269 243.324L87.6514 253.069L88.0229 253.404L87.6514 253.069C75.5655 266.492 54.8862 267.576 41.4631 255.49C28.0401 243.403 26.9563 222.724 39.0425 209.301L47.8177 199.556Z" fill="#FAFAFA" stroke="#0C0D0E"/>
<path d="M117.707 259.537C118.224 259.907 118.595 260.385 118.82 260.972C119.047 261.549 119.092 262.155 118.954 262.793C118.732 263.823 118.161 264.543 117.24 264.953C116.331 265.366 115.183 265.422 113.795 265.123L107.987 263.869L110.524 252.118L116.332 253.373C117.597 253.645 118.532 254.14 119.139 254.857C119.745 255.573 119.945 256.413 119.737 257.375C119.614 257.946 119.371 258.421 119.008 258.799C118.659 259.169 118.225 259.415 117.707 259.537ZM112.737 254.968L112.234 257.302L115.389 257.982C115.826 258.077 116.183 258.049 116.462 257.898C116.74 257.747 116.92 257.487 116.999 257.118C117.079 256.749 117.017 256.437 116.814 256.182C116.625 255.919 116.319 255.741 115.893 255.649L112.737 254.968ZM114.48 262.846C114.972 262.952 115.379 262.917 115.697 262.74C116.028 262.566 116.238 262.271 116.328 261.857C116.419 261.432 116.349 261.077 116.118 260.793C115.9 260.5 115.545 260.3 115.052 260.194L111.762 259.484L111.19 262.136L114.48 262.846Z" fill="white"/>
<path d="M133.323 268.039L132.587 265.816L126.677 265.393L125.632 267.488L122.634 267.273L128.872 255.667L131.87 255.883L136.355 268.256L133.323 268.039ZM130.169 258.464L127.861 263.051L131.767 263.33L130.169 258.464Z" fill="white"/>
<path d="M144.121 256.316C145.356 256.245 146.45 256.428 147.405 256.866C148.37 257.303 149.131 257.964 149.686 258.85C150.253 259.723 150.571 260.759 150.641 261.96C150.71 263.16 150.514 264.232 150.053 265.176C149.602 266.108 148.923 266.847 148.014 267.392C147.116 267.938 146.05 268.246 144.816 268.318L139.895 268.602L139.201 256.601L144.121 256.316ZM144.674 265.866C145.68 265.807 146.473 265.441 147.053 264.765C147.633 264.089 147.892 263.208 147.829 262.122C147.788 261.402 147.608 260.787 147.293 260.278C146.986 259.757 146.568 259.368 146.037 259.113C145.518 258.845 144.926 258.73 144.263 258.768L142.155 258.89L142.565 265.988L144.674 265.866Z" fill="white"/>
<path d="M164.836 254.135L167.335 253.784L169.009 265.689L166.236 266.078L165.19 258.629L162.289 263.407L161.744 263.484L157.603 259.678L158.652 267.144L155.88 267.534L154.207 255.629L156.707 255.278L161.483 259.774L164.836 254.135Z" fill="white"/>
<path d="M171.597 252.423L174.294 251.614L177.748 263.128L175.051 263.938L171.597 252.423Z" fill="white"/>
<path d="M186.687 247.353L189.276 246.289L193.844 257.408L191.509 258.368L183.648 253.559L184.913 256.548L186.506 260.424L183.917 261.487L179.348 250.368L181.682 249.409L189.558 254.25L188.305 251.292L186.687 247.353Z" fill="white"/>
<path d="M201.286 240.361L202.454 242.521L199.222 244.27L203.774 252.683L201.297 254.024L196.745 245.611L193.528 247.352L192.359 245.192L201.286 240.361Z" fill="white"/>
<path d="M215.642 246.046C214.583 246.788 213.503 247.232 212.401 247.375C211.301 247.503 210.259 247.333 209.273 246.864C208.295 246.388 207.446 245.636 206.722 244.604C205.999 243.573 205.58 242.518 205.465 241.437C205.36 240.351 205.557 239.317 206.058 238.336C206.562 237.339 207.343 236.47 208.402 235.727C209.462 234.984 210.541 234.548 211.64 234.42C212.742 234.277 213.781 234.442 214.758 234.918C215.744 235.386 216.599 236.137 217.322 237.168C218.045 238.198 218.46 239.257 218.565 240.344C218.68 241.424 218.485 242.463 217.982 243.46C217.481 244.44 216.701 245.302 215.642 246.046ZM214.202 243.993C214.792 243.579 215.224 243.087 215.496 242.518C215.771 241.934 215.867 241.321 215.781 240.682C215.705 240.036 215.451 239.403 215.017 238.785C214.582 238.167 214.075 237.711 213.493 237.421C212.92 237.123 212.315 237.009 211.679 237.078C211.045 237.131 210.433 237.365 209.842 237.779C209.252 238.194 208.824 238.689 208.558 239.267C208.286 239.836 208.187 240.443 208.263 241.09C208.348 241.729 208.608 242.359 209.042 242.977C209.476 243.596 209.979 244.053 210.552 244.351C211.133 244.643 211.741 244.761 212.375 244.708C213.002 244.646 213.612 244.407 214.202 243.993Z" fill="white"/>
<path d="M223.008 224.717L225.069 222.822L233.205 231.673L231.346 233.381L222.307 231.59L224.529 233.957L227.364 237.042L225.304 238.936L217.168 230.086L219.026 228.377L228.089 230.193L225.891 227.852L223.008 224.717Z" fill="white"/>
<path d="M246.141 217.744C245.372 218.784 244.485 219.544 243.476 220.024C242.474 220.494 241.432 220.663 240.347 220.532C239.27 220.391 238.234 219.954 237.239 219.219C236.244 218.485 235.525 217.619 235.08 216.621C234.632 215.608 234.491 214.558 234.654 213.468C234.808 212.373 235.256 211.323 235.997 210.319C237.051 208.891 238.458 208.037 240.216 207.755L240.581 210.181C239.536 210.363 238.694 210.887 238.055 211.752C237.627 212.333 237.375 212.944 237.299 213.585C237.222 214.211 237.321 214.819 237.598 215.407C237.882 215.987 238.323 216.497 238.922 216.939C239.521 217.381 240.139 217.652 240.776 217.753C241.42 217.844 242.034 217.764 242.619 217.513C243.2 217.245 243.706 216.821 244.134 216.24C244.474 215.78 244.718 215.277 244.865 214.731C245.012 214.184 245.044 213.639 244.963 213.095L247.42 212.86C247.655 214.642 247.229 216.27 246.141 217.744Z" fill="white"/>
<path d="M241.282 203.7L242.666 201.247L250.923 205.904L253.893 200.638L256.107 201.887L251.753 209.606L241.282 203.7Z" fill="white"/>
<path d="M260.567 193.392C259.921 194.996 258.978 196.067 257.738 196.605C256.491 197.128 255.071 197.069 253.478 196.428L247.136 193.879L248.188 191.265L254.529 193.815C255.379 194.157 256.133 194.214 256.793 193.985C257.457 193.746 257.944 193.239 258.256 192.464C258.559 191.709 258.554 191.017 258.241 190.384C257.927 189.752 257.345 189.266 256.496 188.924L250.154 186.374L251.205 183.761L257.546 186.31C259.14 186.952 260.205 187.892 260.743 189.132C261.27 190.368 261.211 191.789 260.567 193.392Z" fill="white"/>
<path d="M260.463 173.149C260.849 172.643 261.338 172.286 261.932 172.08C262.514 171.871 263.122 171.844 263.756 172.002C264.778 172.256 265.48 172.849 265.862 173.781C266.247 174.703 266.268 175.852 265.926 177.23L264.495 182.997L252.827 180.1L254.259 174.333C254.571 173.078 255.094 172.158 255.829 171.573C256.563 170.99 257.409 170.816 258.364 171.053C258.931 171.193 259.399 171.451 259.765 171.825C260.124 172.186 260.357 172.627 260.463 173.149ZM255.744 177.975L258.061 178.551L258.839 175.417C258.946 174.984 258.929 174.626 258.786 174.343C258.644 174.06 258.39 173.872 258.023 173.781C257.657 173.691 257.343 173.743 257.082 173.937C256.814 174.118 256.626 174.42 256.522 174.842L255.744 177.975ZM263.672 176.475C263.793 175.987 263.77 175.58 263.603 175.255C263.439 174.919 263.151 174.7 262.74 174.599C262.317 174.494 261.961 174.553 261.67 174.775C261.37 174.984 261.159 175.333 261.038 175.822L260.227 179.089L262.861 179.743L263.672 176.475Z" fill="white"/>
<path d="M19.4939 193.925L18.9058 192.116L21.8613 186.827C22.1078 186.362 22.3076 185.951 22.4607 185.593C22.6177 185.234 22.7166 184.901 22.7575 184.593C22.797 184.281 22.766 183.968 22.6642 183.655C22.5511 183.307 22.3744 183.033 22.1342 182.833C21.8928 182.629 21.6128 182.504 21.2942 182.458C20.9744 182.408 20.6406 182.44 20.2926 182.553C19.9291 182.671 19.636 182.848 19.4131 183.082C19.1901 183.317 19.0498 183.596 18.9922 183.919C18.9345 184.24 18.9672 184.591 19.0904 184.97L16.7066 185.745C16.454 184.968 16.4107 184.236 16.5765 183.549C16.7423 182.863 17.0915 182.259 17.6238 181.741C18.1561 181.221 18.8359 180.827 19.6634 180.558C20.514 180.282 21.3035 180.192 22.0317 180.288C22.7626 180.38 23.39 180.633 23.9141 181.049C24.4381 181.464 24.8114 182.014 25.0338 182.698C25.1797 183.147 25.2346 183.618 25.1988 184.113C25.1667 184.607 25.0132 185.193 24.7382 185.873C24.4618 186.548 24.0364 187.39 23.4619 188.397L22.2801 190.66L22.3065 190.742L27.2943 189.12L27.9617 191.173L19.4939 193.925ZM35.9933 188.851C34.9944 189.171 34.0563 189.205 33.1788 188.952C32.3051 188.697 31.5248 188.17 30.8378 187.372C30.1546 186.572 29.6038 185.522 29.1854 184.222C28.7643 182.926 28.5969 181.761 28.6831 180.724C28.7732 179.686 29.0985 178.812 29.6593 178.104C30.2226 177.391 31.0011 176.873 31.9949 176.55C32.9885 176.227 33.921 176.189 34.7921 176.435C35.6671 176.681 36.4463 177.198 37.1295 177.985C37.8115 178.767 38.3611 179.807 38.7783 181.104C39.2018 182.407 39.3704 183.583 39.2841 184.633C39.2017 185.681 38.882 186.565 38.3251 187.285C37.7681 188.005 36.9909 188.527 35.9933 188.851ZM35.3165 186.769C35.997 186.548 36.429 186.029 36.6126 185.213C36.7962 184.396 36.6635 183.305 36.2147 181.937C35.9219 181.036 35.5853 180.316 35.2049 179.778C34.8284 179.237 34.4229 178.87 33.9885 178.678C33.5579 178.485 33.1164 178.462 32.6641 178.609C31.9875 178.829 31.5561 179.343 31.3701 180.152C31.184 180.96 31.3084 182.04 31.7431 183.391C32.0397 184.303 32.3781 185.035 32.7585 185.587C33.1414 186.134 33.5506 186.505 33.9863 186.701C34.4207 186.893 34.8641 186.916 35.3165 186.769Z" fill="white"/>
<path d="M248.721 117.019L248.132 115.21L251.088 109.92C251.335 109.456 251.534 109.045 251.687 108.687C251.845 108.328 251.943 107.995 251.984 107.686C252.024 107.374 251.993 107.061 251.891 106.749C251.777 106.401 251.601 106.127 251.361 105.926C251.12 105.723 250.84 105.598 250.521 105.552C250.201 105.502 249.868 105.534 249.52 105.646C249.156 105.764 248.862 105.941 248.64 106.176C248.417 106.411 248.276 106.69 248.219 107.012C248.161 107.334 248.194 107.685 248.317 108.063L245.933 108.838C245.681 108.061 245.638 107.329 245.803 106.643C245.969 105.956 246.318 105.353 246.85 104.834C247.383 104.314 248.063 103.921 248.89 103.651C249.741 103.375 250.531 103.285 251.259 103.382C251.99 103.474 252.617 103.727 253.141 104.143C253.665 104.558 254.038 105.107 254.261 105.792C254.406 106.241 254.461 106.712 254.425 107.207C254.394 107.701 254.24 108.287 253.965 108.966C253.689 109.642 253.263 110.483 252.688 111.491L251.507 113.754L251.533 113.835L256.521 112.213L257.189 114.267L248.721 117.019ZM259.364 111.251L258.721 109.273L261.141 99.8493L262.846 99.2946L263.736 102.033L262.727 102.36L261.209 108.324L261.239 108.417L268.286 106.126L268.94 108.139L259.364 111.251ZM265.744 111.486L264.87 108.794L264.631 107.904L261.93 99.5925L264.284 98.8271L268.145 110.705L265.744 111.486Z" fill="white"/>
<path d="M29.3019 156.256C29.5993 157.959 29.3627 159.366 28.592 160.477C27.8082 161.578 26.5703 162.277 24.8786 162.573L18.1456 163.748L17.661 160.974L24.394 159.798C25.2963 159.64 25.9675 159.291 26.4075 158.749C26.8455 158.196 26.9927 157.508 26.8489 156.684C26.709 155.884 26.3393 155.297 25.7398 154.926C25.1402 154.554 24.3893 154.447 23.4871 154.604L16.754 155.78L16.2694 153.006L23.0025 151.83C24.6943 151.535 26.0955 151.772 27.2064 152.543C28.306 153.315 29.0044 154.553 29.3019 156.256Z" fill="white"/>
<path d="M15.8729 139.964L15.6934 137.169L27.69 136.399L27.8519 138.918L20.7801 144.828L24.017 144.585L28.1986 144.317L28.3781 147.11L16.3815 147.881L16.2197 145.362L23.3256 139.45L20.123 139.69L15.8729 139.964Z" fill="white"/>
<path d="M16.4977 131.246L16.6664 128.435L28.6662 129.154L28.4974 131.966L16.4977 131.246Z" fill="white"/>
<path d="M18.4218 114.491L18.8125 111.408L30.1168 117.825L29.7433 120.773L17.1957 124.168L17.5864 121.085L21.8441 119.997L26.6919 118.898L22.2758 116.59L18.4218 114.491Z" fill="white"/>
<path d="M30.5349 107.048L32.194 100.63L34.4885 101.223L32.1459 110.285L20.5072 107.277L22.8025 98.3979L25.0804 98.9863L23.4685 105.222L25.8295 105.832L27.3554 99.9294L29.5501 100.497L28.0242 106.399L30.5349 107.048Z" fill="white"/>
<path d="M34.2679 92.2402L33.6725 93.7596L37.366 95.2067L36.3383 97.829L25.1459 93.4423L27.2829 87.9901C27.6004 87.18 28.0381 86.5334 28.5961 86.0518C29.1433 85.565 29.7695 85.2693 30.4746 85.1648C31.1798 85.0595 31.9054 85.1536 32.6515 85.4463C33.5043 85.78 34.1467 86.29 34.5788 86.9762C35.0151 87.6512 35.2024 88.4441 35.1407 89.3543L40.2989 87.7243L39.0768 90.8417L34.2679 92.2402ZM31.6683 88.0491C31.1673 87.8528 30.7176 87.8543 30.3193 88.0551C29.9252 88.2448 29.6195 88.6166 29.4022 89.1714L28.4058 91.7138L31.5557 92.948L32.5521 90.4056C32.7735 89.8411 32.8095 89.3565 32.66 88.9541C32.4999 88.5472 32.1692 88.2455 31.6683 88.0491Z" fill="white"/>
<path d="M44.9214 81.2522C44.4457 82.1146 43.8562 82.8747 43.1531 83.5326C42.4554 84.1807 41.7106 84.6652 40.9186 84.9863L39.8347 82.7209C41.0809 82.193 42.047 81.3067 42.733 80.0643C43.0759 79.4423 43.2418 78.8935 43.2304 78.4164C43.2246 77.9296 43.0413 77.5863 42.6804 77.3871C42.3396 77.199 41.98 77.2228 41.6014 77.4585C41.2228 77.6944 40.7888 78.161 40.2993 78.8584C39.3478 80.2032 38.4311 81.07 37.5493 81.4598C36.673 81.8391 35.7587 81.7659 34.8064 81.2403C34.165 80.8864 33.6982 80.3936 33.4061 79.7619C33.1142 79.1295 33.0126 78.4134 33.1016 77.6124C33.1905 76.8115 33.4701 75.985 33.9403 75.1331C34.3442 74.4013 34.8422 73.7477 35.4344 73.1723C36.0321 72.5868 36.668 72.1335 37.3421 71.8125L38.4323 73.9244C37.4073 74.4311 36.621 75.1806 36.0733 76.1729C35.7359 76.7843 35.5651 77.3308 35.5608 77.8123C35.5621 78.2835 35.7332 78.6135 36.074 78.8017C36.4048 78.9846 36.7461 78.9697 37.098 78.7591C37.4555 78.5374 37.884 78.0811 38.3836 77.3891C39.3295 76.0542 40.2717 75.1881 41.2103 74.7907C42.1388 74.3878 43.0792 74.4491 44.0314 74.9746C44.693 75.3398 45.177 75.8488 45.4835 76.5019C45.78 77.1493 45.8833 77.8863 45.7933 78.7128C45.6934 79.5334 45.4027 80.3801 44.9214 81.2522Z" fill="white"/>
<path d="M40.0658 66.779L41.7167 64.4971L51.4563 71.5436L49.8053 73.8255L40.0658 66.779Z" fill="white"/>
<path d="M51.1791 53.1196L53.0658 54.6916L50.7133 57.5151L58.0624 63.6381L56.2595 65.802L48.9105 59.6789L46.569 62.4892L44.6823 60.9172L51.1791 53.1196Z" fill="white"/>
<path d="M62.3665 42.8257L63.9462 51.4848L67.2221 54.8628L65.2126 56.8116L61.9368 53.4337L53.4534 51.4697L55.8204 49.1742L61.1188 50.5428L59.9626 45.1571L62.3665 42.8257Z" fill="white"/>
<path d="M82.0675 44.5068C81.005 45.2451 79.9223 45.6835 78.8203 45.8222C77.7204 45.945 76.6784 45.7697 75.6943 45.2963C74.7196 44.8164 73.8729 44.0593 73.1543 43.0251C72.4357 41.9909 72.0216 40.9333 71.9119 39.8524C71.8116 38.765 72.014 37.7321 72.5193 36.7537C73.0274 35.7594 73.8127 34.8932 74.8751 34.155C75.9375 33.4168 77.0186 32.9864 78.1184 32.8635C79.2212 32.7249 80.2598 32.8954 81.2342 33.3754C82.2183 33.8487 83.0695 34.6025 83.7886 35.6367C84.5069 36.671 84.916 37.7318 85.0168 38.8192C85.1266 39.9001 84.9272 40.9378 84.4188 41.932C83.914 42.9104 83.13 43.7687 82.0675 44.5068ZM80.6369 42.4477C81.229 42.0362 81.6628 41.5467 81.9376 40.9793C82.2154 40.3959 82.3132 39.7843 82.231 39.1443C82.1586 38.4978 81.9062 37.8643 81.4754 37.2438C81.0438 36.6232 80.5383 36.166 79.9582 35.8723C79.387 35.5721 78.7829 35.4551 78.1453 35.5213C77.5114 35.5716 76.8981 35.8025 76.3057 36.214C75.7134 36.6256 75.283 37.1198 75.0146 37.6966C74.7397 38.2641 74.6386 38.8711 74.7114 39.5175C74.7936 40.1575 75.0503 40.7878 75.4814 41.4083C75.9125 42.0289 76.4137 42.4893 76.9847 42.7895C77.5653 43.0832 78.1729 43.2049 78.8068 43.1547C79.4348 43.0949 80.0448 42.8593 80.6369 42.4477Z" fill="white"/>
<path d="M94.2098 27.0056L88.8181 29.7762L90.1285 32.3271L95.2148 29.7134L96.3057 31.8367L91.2194 34.4503L93.1899 38.2843L90.6848 39.5715L85.1901 28.879L93.0876 24.8213L94.2098 27.0056Z" fill="white"/>
<path d="M117.233 29.4342L115.709 27.6567L110.08 29.5044L109.906 31.8388L107.051 32.776L108.426 19.6726L111.281 18.7354L120.121 28.4863L117.233 29.4342ZM110.686 21.7684L110.288 26.8878L114.008 25.6667L110.686 21.7684Z" fill="white"/>
<path d="M127.432 28.0483C125.736 28.3849 124.324 28.1809 123.196 27.4361C122.077 26.6778 121.35 25.4564 121.016 23.772L119.685 17.0679L122.447 16.5194L123.778 23.2235C123.956 24.1219 124.321 24.7848 124.873 25.2122C125.436 25.6373 126.128 25.7685 126.947 25.6058C127.745 25.4475 128.322 25.0644 128.68 24.4564C129.038 23.8484 129.128 23.0952 128.949 22.1969L127.619 15.4928L130.381 14.9443L131.712 21.6484C132.046 23.3329 131.841 24.7393 131.097 25.8676C130.349 26.9848 129.128 27.7117 127.432 28.0483Z" fill="white"/>
<path d="M143.588 26.7561C142.298 26.8439 141.143 26.6585 140.125 26.1999C139.118 25.7405 138.314 25.0549 137.713 24.1434C137.123 23.2311 136.786 22.1581 136.702 20.9245C136.618 19.6908 136.812 18.5817 137.285 17.5972C137.768 16.6004 138.478 15.812 139.413 15.2319C140.349 14.6404 141.439 14.3023 142.684 14.2177C144.454 14.0973 146.016 14.6165 147.368 15.7754L145.755 17.6235C144.941 16.9446 143.996 16.6416 142.922 16.7146C142.203 16.7635 141.574 16.9669 141.036 17.3248C140.508 17.6705 140.111 18.1394 139.841 18.7315C139.583 19.3229 139.479 19.9897 139.529 20.7322C139.58 21.4747 139.773 22.1214 140.109 22.6723C140.456 23.2224 140.915 23.6387 141.484 23.9214C142.065 24.1916 142.716 24.3024 143.435 24.2535C144.006 24.2146 144.547 24.0745 145.059 23.8332C145.57 23.5918 146.007 23.2638 146.369 22.849L148.139 24.5704C146.933 25.9033 145.416 26.6318 143.588 26.7561Z" fill="white"/>
<path d="M162.634 27.4469L158.981 27.2577L155.009 22.2714L154.762 27.0392L151.967 26.8944L152.589 14.8892L155.384 15.0339L155.141 19.7332L159.328 15.2382L162.793 15.4177L157.429 21.0382L162.634 27.4469Z" fill="white"/>
<path d="M166.484 16.4873L169.263 16.9434L167.728 26.298L173.694 27.2769L173.282 29.785L164.538 28.35L166.484 16.4873Z" fill="white"/>
<path d="M185.106 33.3669L184.809 31.045L179.089 29.498L177.663 31.3536L174.762 30.5689L183.106 20.3726L186.007 21.1573L188.04 34.1606L185.106 33.3669ZM183.844 23.3653L180.7 27.4251L184.48 28.4475L183.844 23.3653Z" fill="white"/>
<path d="M202.028 27.6775L204.617 28.7415L200.048 39.8605L197.713 38.9009L195.504 29.9538L194.302 32.969L192.709 36.8447L190.12 35.7807L194.689 24.6616L197.024 25.6212L199.22 34.6002L200.409 31.6168L202.028 27.6775Z" fill="white"/>
<path d="M214.338 34.7061C215.413 35.3168 216.232 36.0652 216.796 36.9512C217.369 37.8429 217.649 38.8114 217.634 39.8566C217.635 40.8975 217.339 41.9406 216.745 42.9859C216.152 44.0312 215.405 44.8249 214.505 45.3669C213.62 45.9045 212.648 46.1556 211.588 46.12C210.539 46.0901 209.477 45.7698 208.401 45.1591L204.115 42.725L210.052 32.272L214.338 34.7061ZM209.614 43.0237C210.491 43.5213 211.355 43.644 212.209 43.3919C213.064 43.1397 213.759 42.5407 214.296 41.595C214.652 40.9678 214.837 40.3546 214.848 39.7553C214.874 39.1517 214.735 38.5982 214.428 38.0949C214.137 37.5873 213.703 37.1695 213.125 36.8416L211.289 35.7983L207.777 41.9806L209.614 43.0237Z" fill="white"/>
</svg>
