<svg width="253" height="256" viewBox="0 0 250 256" fill="none" xmlns="http://www.w3.org/2000/svg">
<path fill-rule="evenodd" clip-rule="evenodd" d="M126.5 250C194.707 250 250 194.707 250 126.5C250 58.2928 194.707 3 126.5 3C58.2928 3 3 58.2928 3 126.5C3 194.707 58.2928 250 126.5 250ZM126.829 217.067C176.666 217.067 217.067 176.371 217.067 126.171C217.067 75.9704 176.666 35.2747 126.829 35.2747C76.9926 35.2747 36.592 75.9704 36.592 126.171C36.592 176.371 76.9926 217.067 126.829 217.067Z" stroke="white" stroke-width="6"/>
<path d="M73.3416 119.913C72.6968 135.721 72.6968 149.553 66.8907 170.301C78.825 166.349 87.6057 158.498 92.0504 153.835C103.662 141.649 106.999 133.087 110.113 119.913C113.016 107.634 110.577 106.411 115.597 87.3093C118.28 77.1 121.295 68.5373 126.564 61.6215C133.338 52.7294 136.563 49.7652 145.272 42.52C128.499 44.8254 121.725 47.2584 109.791 52.7294C98.2761 58.0078 87.2118 66.8906 81.4057 77.1C74.3066 89.5824 74.0668 102.144 73.3416 119.913Z" fill="#102A50" stroke="#FAFAFA"/>
<path d="M172.042 61.9491C187.565 58.021 201.265 55.1328 220.614 45.1548C219.168 57.585 213.208 67.7623 209.508 73.0579C199.842 86.8938 192.051 91.926 179.648 97.7052C168.086 103.092 166.37 100.976 148.49 109.845C138.933 114.586 131.076 119.306 125.316 125.873C117.91 134.317 115.642 138.072 110.267 148.053C109.081 131.262 110.089 124.167 113.039 111.42C115.886 99.1207 122.395 86.5072 131.306 78.7297C142.201 69.2205 154.593 66.3644 172.042 61.9491Z" fill="#102A50" stroke="#FAFAFA"/>
<path d="M156.895 155.114C141.489 158.789 127.897 161.428 108.667 171.304C110.168 158.388 116.13 147.942 119.825 142.523C129.481 128.365 137.229 123.331 149.552 117.643C161.04 112.341 167.785 112.101 180.497 105.833C189.993 101.151 197.806 96.4438 203.55 89.7557C210.936 81.1561 213.204 77.3036 218.585 67.0459C219.669 84.5779 218.63 91.9451 215.637 105.151C212.749 117.892 206.23 130.862 197.356 138.727C186.507 148.343 174.21 150.985 156.895 155.114Z" fill="#102A50" stroke="#FAFAFA"/>
<path d="M143.218 196.534C127.779 194.558 114.367 192.26 93.2373 194.672C99.1522 183.284 108.296 175.727 113.593 172.017C127.435 162.323 136.319 160.378 149.635 159.424C162.048 158.535 168.327 160.661 182.204 159.307C192.572 158.296 201.4 156.675 209.024 152.508C218.829 147.149 222.265 144.387 230.81 136.801C225.648 153.345 222.107 159.777 214.719 170.912C207.592 181.656 197.048 191.346 186.137 195.509C172.795 200.599 160.573 198.754 143.218 196.534Z" fill="#102A50" stroke="#FAFAFA"/>
<path d="M141.931 36.0128C134.034 42.483 130.705 45.614 124.129 54.0692C118.686 61.0675 115.587 69.7116 112.844 79.9344C110.274 89.5128 109.61 94.622 109.219 98.8784C109.161 99.5119 109.109 100.125 109.057 100.73C108.765 104.177 108.494 107.365 107.242 112.551C105.656 119.123 104.02 124.512 101.316 129.77C98.6126 135.026 94.8299 140.174 88.927 146.241L89.2366 146.542L88.927 146.241C84.5285 150.762 75.9577 158.279 64.336 162.282C69.4861 143.896 69.9821 130.915 70.511 117.071C70.5664 115.622 70.6221 114.164 70.6836 112.689C70.7114 112.02 70.7386 111.359 70.7655 110.705C71.4539 93.9533 71.9452 81.9973 78.8497 70.1057C84.711 60.0113 95.9129 51.189 107.603 45.9401C119.323 40.6783 126.13 38.242 141.931 36.0128Z" fill="#FAFAFA" stroke="#0A172A"/>
<path d="M129.529 69.9981L129.23 69.6572L129.529 69.998C140.104 60.7267 152.069 57.6923 168.822 53.4438C169.477 53.2778 170.139 53.1099 170.809 52.9397C172.284 52.5648 173.743 52.199 175.193 51.8356C189.053 48.3618 202.046 45.1052 219.538 36.1531C217.899 48.3272 212.085 58.2816 208.432 63.5338C203.53 70.5811 199.117 75.3673 194.372 79.1252C189.624 82.8848 184.523 85.6305 178.22 88.5808C173.245 90.9089 170.083 91.8544 166.667 92.8759C166.067 93.0553 165.459 93.2371 164.832 93.4291C160.622 94.7189 155.607 96.4563 146.477 101.005C136.732 105.86 128.656 110.725 122.723 117.52C115.538 125.748 113.071 129.659 108.155 138.772C107.14 122.879 108.192 115.726 111.084 103.176C113.966 90.6674 120.552 77.8675 129.529 69.9981Z" fill="#FAFAFA" stroke="#0A172A"/>
<path d="M155.142 147.278C153.678 147.628 152.229 147.97 150.789 148.31C137.036 151.553 124.14 154.594 106.756 163.449C108.442 150.779 114.268 140.543 117.92 135.164C122.817 127.951 127.216 123.083 131.938 119.297C136.662 115.509 141.73 112.787 147.992 109.884C153.374 107.389 157.724 105.996 162.149 104.58C162.506 104.466 162.865 104.351 163.224 104.236C168.03 102.692 173.012 101.019 179.518 97.7969C189.203 93.0006 197.235 88.1486 203.154 81.2262C210.313 72.8536 212.78 68.8447 217.692 59.4989C218.613 76.1031 217.531 83.5334 214.596 96.5406C211.67 109.506 205.07 122.669 196.134 130.626C185.608 139.998 173.739 142.834 157.112 146.806C156.463 146.962 155.806 147.118 155.142 147.278Z" fill="#FAFAFA" stroke="#0A172A"/>
<path d="M140.668 190.574L140.612 191.017L140.668 190.574C139.19 190.385 137.729 190.192 136.277 190.001C122.413 188.173 109.413 186.459 90.2114 188.593C96.246 177.341 105.251 169.828 110.529 166.089C117.605 161.075 123.392 158.078 129.096 156.207C134.803 154.335 140.45 153.581 147.267 153.079C153.125 152.649 157.64 152.884 162.232 153.124C162.603 153.144 162.975 153.163 163.348 153.182C168.338 153.438 173.537 153.634 180.693 152.921C191.346 151.859 200.49 150.161 208.41 145.779C217.982 140.483 221.682 137.606 229.516 130.613C224.504 146.457 220.879 153.022 213.571 164.146C206.286 175.236 195.531 185.212 184.457 189.493C171.413 194.535 159.437 192.992 142.657 190.83C142.001 190.746 141.339 190.66 140.668 190.574Z" fill="#FAFAFA" stroke="#0A172A"/>
<path d="M55.4191 161.4L54.9783 161.89C54.4915 162.431 54.5352 163.264 55.0758 163.75L97.1715 201.653C97.7122 202.14 98.5451 202.097 99.032 201.556L99.4727 201.067C99.9595 200.526 99.9159 199.693 99.3752 199.206L57.2795 161.303C56.7388 160.816 55.9059 160.86 55.4191 161.4Z" fill="#0C0D0E"/>
<path d="M50.5708 166.784L47.4857 170.211C46.512 171.292 46.5993 172.958 47.6807 173.932L87.3289 209.631C88.4103 210.605 90.0762 210.517 91.0498 209.436L94.135 206.01C95.1086 204.928 95.0213 203.262 93.94 202.289L54.2917 166.589C53.2104 165.616 51.5445 165.703 50.5708 166.784Z" fill="#0C0D0E"/>
<path d="M36.6348 226.06C24.6128 215.235 23.6421 196.714 34.4668 184.692L42.2079 176.095C43.1815 175.013 44.8474 174.926 45.9287 175.9L85.5487 211.574C86.6302 212.548 86.7172 214.213 85.7437 215.295L78.0024 223.892C67.1779 235.914 48.6569 236.885 36.6348 226.06Z" fill="#0C0D0E"/>
<path d="M57.8845 170.404L57.4438 170.893C57.2003 171.164 57.2222 171.58 57.4925 171.824L99.5882 209.727C99.8585 209.97 100.275 209.948 100.518 209.678L100.959 209.188C101.203 208.918 101.181 208.502 100.91 208.258L58.8147 170.355C58.5444 170.112 58.1279 170.134 57.8845 170.404Z" fill="#102A50" stroke="#FAFAFA"/>
<path d="M53.0363 175.788L49.9512 179.214C49.221 180.025 49.2864 181.275 50.0975 182.005L89.7457 217.704C90.5567 218.435 91.8061 218.369 92.5364 217.558L95.6215 214.132C96.3517 213.321 96.2863 212.071 95.4753 211.341L55.827 175.642C55.016 174.911 53.7666 174.977 53.0363 175.788Z" fill="#102A50" stroke="#FAFAFA"/>
<path d="M36.9323 193.695L44.6733 185.098C45.4036 184.287 46.653 184.221 47.464 184.952L87.0841 220.626C87.8949 221.356 87.9601 222.605 87.2303 223.417L79.489 232.014C68.9075 243.766 50.8033 244.714 39.0516 234.133C27.2998 223.552 26.351 205.447 36.9323 193.695Z" fill="#102A50" stroke="#FAFAFA"/>
<path d="M55.3499 162.224L55.7906 161.735C56.0927 161.4 56.6095 161.372 56.9449 161.675L99.0406 199.578C99.3761 199.88 99.4032 200.396 99.1011 200.732L98.6604 201.221C98.3583 201.557 97.8415 201.584 97.5061 201.282L55.4104 163.379C55.0749 163.077 55.0479 162.56 55.3499 162.224Z" fill="#FAFAFA" stroke="#0A172A"/>
<path d="M47.8573 170.545L50.9424 167.119C51.7313 166.243 53.081 166.172 53.9571 166.961L93.6054 202.66C94.4815 203.449 94.5523 204.799 93.7634 205.675L90.6783 209.102C89.8894 209.978 88.5396 210.048 87.6635 209.26L48.0153 173.56C47.1391 172.771 47.0684 171.421 47.8573 170.545Z" fill="#FAFAFA" stroke="#0A172A"/>
<path d="M42.5794 176.429L42.5795 176.429C43.3684 175.553 44.718 175.482 45.5941 176.271L45.5942 176.272L85.2141 211.946L85.2142 211.946C86.0903 212.734 86.161 214.084 85.3721 214.96C85.3721 214.96 85.3721 214.96 85.3721 214.96L77.6308 223.557L78.0004 223.89L77.6308 223.557C66.9911 235.374 48.7863 236.328 36.9694 225.688C25.1525 215.048 24.1984 196.843 34.8384 185.026C34.8384 185.026 34.8384 185.026 34.8384 185.026L42.5794 176.429Z" fill="#FAFAFA" stroke="#0A172A"/>
<path d="M104.188 229.302C104.644 229.628 104.971 230.05 105.17 230.568C105.37 231.077 105.409 231.611 105.288 232.175C105.092 233.083 104.588 233.718 103.776 234.08C102.974 234.444 101.961 234.494 100.737 234.23L95.6138 233.124L97.8513 222.758L102.975 223.864C104.091 224.105 104.916 224.541 105.451 225.174C105.986 225.805 106.162 226.546 105.979 227.395C105.87 227.898 105.656 228.317 105.336 228.651C105.027 228.977 104.645 229.194 104.188 229.302ZM99.8036 225.272L99.3596 227.33L102.143 227.931C102.528 228.014 102.844 227.989 103.09 227.856C103.335 227.723 103.493 227.494 103.563 227.168C103.634 226.843 103.58 226.567 103.401 226.343C103.234 226.11 102.963 225.953 102.588 225.872L99.8036 225.272ZM101.342 232.221C101.776 232.315 102.134 232.284 102.415 232.128C102.707 231.974 102.892 231.714 102.971 231.349C103.052 230.974 102.99 230.661 102.786 230.41C102.594 230.152 102.281 229.975 101.846 229.882L98.944 229.255L98.4388 231.595L101.342 232.221Z" fill="white"/>
<path d="M117.964 236.802L117.314 234.841L112.101 234.468L111.179 236.316L108.534 236.127L114.037 225.889L116.681 226.079L120.638 236.993L117.964 236.802ZM115.181 228.356L113.145 232.402L116.59 232.648L115.181 228.356Z" fill="white"/>
<path d="M127.489 226.461C128.578 226.398 129.544 226.559 130.385 226.946C131.237 227.331 131.908 227.915 132.398 228.696C132.898 229.466 133.179 230.38 133.24 231.439C133.301 232.498 133.129 233.444 132.722 234.276C132.324 235.099 131.725 235.75 130.923 236.232C130.131 236.713 129.191 236.985 128.102 237.048L123.761 237.299L123.149 226.712L127.489 226.461ZM127.977 234.885C128.864 234.833 129.563 234.51 130.075 233.914C130.587 233.318 130.816 232.541 130.76 231.583C130.723 230.947 130.565 230.405 130.287 229.956C130.017 229.496 129.648 229.153 129.179 228.928C128.721 228.691 128.199 228.59 127.614 228.623L125.754 228.732L126.117 234.993L127.977 234.885Z" fill="white"/>
<path d="M145.762 224.537L147.967 224.227L149.443 234.729L146.998 235.072L146.074 228.501L143.515 232.716L143.035 232.784L139.382 229.427L140.307 236.013L137.862 236.356L136.386 225.855L138.591 225.545L142.805 229.512L145.762 224.537Z" fill="white"/>
<path d="M151.726 223.027L154.106 222.313L157.153 232.47L154.773 233.184L151.726 223.027Z" fill="white"/>
<path d="M165.038 218.555L167.322 217.616L171.352 227.425L169.292 228.271L162.357 224.029L163.474 226.666L164.879 230.085L162.594 231.023L158.564 221.214L160.624 220.369L167.571 224.639L166.466 222.03L165.038 218.555Z" fill="white"/>
<path d="M177.916 212.387L178.947 214.292L176.096 215.835L180.112 223.256L177.927 224.439L173.911 217.018L171.073 218.553L170.042 216.648L177.916 212.387Z" fill="white"/>
<path d="M190.58 217.4C189.646 218.056 188.693 218.447 187.721 218.574C186.752 218.686 185.832 218.536 184.962 218.122C184.1 217.703 183.35 217.039 182.712 216.129C182.074 215.22 181.704 214.288 181.603 213.335C181.511 212.377 181.684 211.465 182.126 210.6C182.57 209.72 183.26 208.953 184.194 208.298C185.129 207.642 186.08 207.258 187.05 207.145C188.022 207.019 188.939 207.165 189.801 207.584C190.671 207.997 191.425 208.659 192.062 209.569C192.701 210.478 193.066 211.412 193.159 212.371C193.26 213.324 193.089 214.24 192.645 215.12C192.203 215.984 191.515 216.744 190.58 217.4ZM189.31 215.59C189.831 215.224 190.212 214.791 190.452 214.289C190.694 213.773 190.779 213.233 190.704 212.669C190.636 212.099 190.412 211.541 190.029 210.996C189.646 210.45 189.198 210.048 188.685 209.792C188.18 209.529 187.646 209.429 187.085 209.49C186.526 209.537 185.986 209.743 185.465 210.108C184.944 210.474 184.566 210.911 184.332 211.421C184.091 211.923 184.004 212.459 184.071 213.029C184.147 213.593 184.376 214.148 184.758 214.693C185.141 215.239 185.585 215.643 186.09 215.906C186.603 216.163 187.139 216.268 187.699 216.221C188.252 216.165 188.789 215.955 189.31 215.59Z" fill="white"/>
<path d="M197.079 198.586L198.897 196.915L206.074 204.722L204.434 206.229L196.46 204.65L198.42 206.737L200.921 209.458L199.104 211.129L191.927 203.322L193.566 201.815L201.561 203.416L199.622 201.352L197.079 198.586Z" fill="white"/>
<path d="M217.485 192.435C216.807 193.353 216.024 194.023 215.134 194.446C214.25 194.86 213.331 195.01 212.374 194.894C211.424 194.77 210.51 194.384 209.632 193.736C208.755 193.089 208.12 192.325 207.727 191.445C207.333 190.551 207.208 189.624 207.352 188.663C207.488 187.697 207.883 186.771 208.537 185.885C209.466 184.625 210.707 183.872 212.258 183.624L212.58 185.764C211.659 185.924 210.916 186.386 210.352 187.149C209.974 187.662 209.752 188.201 209.686 188.766C209.617 189.318 209.705 189.855 209.949 190.374C210.199 190.885 210.589 191.335 211.117 191.725C211.645 192.115 212.191 192.354 212.752 192.443C213.321 192.523 213.862 192.453 214.378 192.231C214.891 191.995 215.337 191.62 215.715 191.109C216.015 190.702 216.23 190.258 216.359 189.777C216.489 189.295 216.517 188.814 216.446 188.334L218.613 188.126C218.821 189.698 218.445 191.134 217.485 192.435Z" fill="white"/>
<path d="M213.199 180.046L214.419 177.882L221.704 181.99L224.323 177.345L226.276 178.447L222.435 185.256L213.199 180.046Z" fill="white"/>
<path d="M230.21 170.953C229.641 172.368 228.809 173.313 227.715 173.788C226.615 174.249 225.363 174.197 223.958 173.632L218.363 171.382L219.29 169.077L224.884 171.326C225.634 171.628 226.299 171.678 226.881 171.476C227.467 171.266 227.897 170.818 228.172 170.134C228.44 169.469 228.435 168.858 228.159 168.3C227.882 167.742 227.369 167.313 226.619 167.011L221.025 164.762L221.952 162.457L227.546 164.706C228.952 165.272 229.892 166.101 230.366 167.195C230.831 168.286 230.779 169.539 230.21 170.953Z" fill="white"/>
<path d="M230.119 153.096C230.459 152.649 230.891 152.335 231.415 152.152C231.929 151.968 232.465 151.945 233.024 152.084C233.926 152.308 234.545 152.831 234.882 153.653C235.222 154.466 235.24 155.48 234.938 156.696L233.676 161.783L223.383 159.228L224.647 154.14C224.921 153.033 225.383 152.222 226.031 151.706C226.679 151.191 227.425 151.037 228.268 151.247C228.768 151.371 229.18 151.598 229.504 151.928C229.82 152.246 230.025 152.635 230.119 153.096ZM225.956 157.353L228 157.861L228.686 155.097C228.781 154.715 228.766 154.398 228.64 154.149C228.515 153.899 228.29 153.734 227.967 153.653C227.644 153.574 227.367 153.619 227.137 153.791C226.9 153.951 226.735 154.217 226.642 154.589L225.956 157.353ZM232.95 156.03C233.056 155.599 233.037 155.24 232.889 154.954C232.744 154.657 232.49 154.464 232.128 154.375C231.755 154.282 231.441 154.334 231.184 154.53C230.919 154.715 230.733 155.022 230.627 155.454L229.911 158.335L232.234 158.912L232.95 156.03Z" fill="white"/>
<path d="M17.55 171.424L17.0312 169.828L19.6384 165.162C19.8558 164.752 20.0321 164.389 20.1671 164.074C20.3056 163.757 20.3928 163.463 20.4289 163.191C20.4638 162.916 20.4364 162.64 20.3466 162.364C20.2469 162.057 20.091 161.815 19.8791 161.639C19.6661 161.459 19.4191 161.349 19.1381 161.308C18.856 161.264 18.5615 161.292 18.2545 161.392C17.9339 161.496 17.6753 161.652 17.4787 161.859C17.282 162.066 17.1582 162.312 17.1074 162.596C17.0565 162.88 17.0853 163.19 17.194 163.524L15.0912 164.207C14.8684 163.522 14.8301 162.876 14.9764 162.27C15.1227 161.665 15.4307 161.133 15.9002 160.675C16.3698 160.217 16.9695 159.869 17.6995 159.632C18.4499 159.388 19.1463 159.309 19.7887 159.394C20.4335 159.475 20.9869 159.698 21.4493 160.065C21.9115 160.431 22.2408 160.916 22.437 161.52C22.5656 161.916 22.6141 162.332 22.5825 162.768C22.5542 163.204 22.4188 163.721 22.1762 164.32C21.9324 164.916 21.5571 165.659 21.0503 166.547L20.0078 168.543L20.0311 168.615L24.431 167.185L25.0198 168.996L17.55 171.424ZM32.1048 166.948C31.2237 167.23 30.3961 167.26 29.622 167.036C28.8513 166.812 28.1629 166.347 27.5569 165.643C26.9542 164.937 26.4684 164.011 26.0992 162.864C25.7278 161.721 25.5801 160.693 25.6562 159.778C25.7357 158.862 26.0226 158.092 26.5173 157.467C27.0143 156.838 27.701 156.381 28.5776 156.096C29.4542 155.811 30.2767 155.778 31.0452 155.995C31.8171 156.212 32.5044 156.668 33.1071 157.362C33.7088 158.052 34.1935 158.97 34.5615 160.113C34.9351 161.263 35.0839 162.301 35.0078 163.227C34.9351 164.151 34.6531 164.931 34.1618 165.566C33.6704 166.201 32.9848 166.662 32.1048 166.948ZM31.5077 165.111C32.1081 164.916 32.4892 164.458 32.6511 163.738C32.813 163.018 32.696 162.055 32.3001 160.848C32.0418 160.054 31.7449 159.418 31.4093 158.943C31.0772 158.467 30.7195 158.143 30.3362 157.974C29.9565 157.803 29.567 157.783 29.168 157.913C28.5711 158.106 28.1906 158.56 28.0264 159.273C27.8623 159.987 27.972 160.939 28.3555 162.131C28.6171 162.936 28.9157 163.581 29.2512 164.068C29.589 164.551 29.95 164.878 30.3343 165.051C30.7175 165.22 31.1087 165.241 31.5077 165.111Z" fill="white"/>
<path d="M219.761 103.581L219.242 101.985L221.849 97.319C222.067 96.9093 222.242 96.5464 222.378 96.2309C222.516 95.9141 222.603 95.6203 222.64 95.3483C222.675 95.073 222.647 94.797 222.557 94.521C222.457 94.2141 222.302 93.9723 222.09 93.7958C221.877 93.616 221.63 93.506 221.349 93.4652C221.067 93.421 220.772 93.4494 220.465 93.5488C220.145 93.6529 219.886 93.809 219.689 94.0158C219.493 94.2233 219.369 94.469 219.318 94.7535C219.267 95.0374 219.296 95.347 219.405 95.6809L217.302 96.3646C217.079 95.6789 217.041 95.0334 217.187 94.4275C217.333 93.8222 217.641 93.2899 218.111 92.8322C218.58 92.3737 219.18 92.0266 219.91 91.7888C220.66 91.5451 221.357 91.4661 221.999 91.5511C222.644 91.6321 223.198 91.8554 223.66 92.2223C224.122 92.5885 224.452 93.0732 224.648 93.6772C224.776 94.0731 224.824 94.4887 224.793 94.9254C224.765 95.3608 224.63 95.8779 224.387 96.4772C224.143 97.0733 223.768 97.8157 223.261 98.7042L222.219 100.701L222.242 100.772L226.642 99.3418L227.231 101.153L219.761 103.581ZM229.15 98.4928L228.583 96.748L230.717 88.4349L232.221 87.9455L233.006 90.3609L232.116 90.65L230.777 95.9108L230.804 95.9925L237.02 93.9717L237.597 95.7474L229.15 98.4928ZM234.778 98.7002L234.006 96.3257L233.796 95.54L231.413 88.2083L233.49 87.5332L236.896 98.0113L234.778 98.7002Z" fill="white"/>
<path d="M26.2021 138.193C26.4644 139.696 26.2557 140.937 25.5759 141.917C24.8844 142.888 23.7925 143.505 22.3001 143.766L16.3606 144.802L15.9331 142.355L21.8727 141.318C22.6686 141.179 23.2607 140.871 23.6488 140.393C24.0352 139.905 24.165 139.298 24.0381 138.571C23.9148 137.865 23.5887 137.348 23.0598 137.02C22.5309 136.692 21.8685 136.597 21.0726 136.736L15.133 137.774L14.7056 135.326L20.6451 134.289C22.1375 134.029 23.3736 134.238 24.3535 134.918C25.3235 135.599 25.9397 136.692 26.2021 138.193Z" fill="white"/>
<path d="M14.3557 123.821L14.1973 121.356L24.7801 120.677L24.9229 122.899L18.6846 128.112L21.5399 127.898L25.2287 127.661L25.3871 130.125L14.8044 130.806L14.6616 128.583L20.9301 123.368L18.1049 123.58L14.3557 123.821Z" fill="white"/>
<path d="M14.9069 116.131L15.0558 113.651L25.6413 114.286L25.4924 116.767L14.9069 116.131Z" fill="white"/>
<path d="M16.6042 101.351L16.9489 98.6311L26.9209 104.292L26.5915 106.893L15.5226 109.888L15.8673 107.167L19.6232 106.208L23.8997 105.238L20.0041 103.202L16.6042 101.351Z" fill="white"/>
<path d="M27.2897 94.7852L28.7533 89.124L30.7773 89.6469L28.7109 97.6405L18.4439 94.9868L20.4686 87.1545L22.4781 87.6736L21.0561 93.1741L23.1389 93.7122L24.485 88.5055L26.421 89.0061L25.0749 94.2128L27.2897 94.7852Z" fill="white"/>
<path d="M30.5827 81.7224L30.0575 83.0628L33.3157 84.3393L32.4091 86.6525L22.5358 82.7829L24.421 77.9733C24.701 77.2586 25.0871 76.6882 25.5794 76.2634C26.0621 75.8339 26.6145 75.5731 27.2365 75.4809C27.8585 75.388 28.4986 75.471 29.1568 75.7292C29.9091 76.0236 30.4758 76.4735 30.857 77.0788C31.2419 77.6742 31.4071 78.3738 31.3526 79.1767L35.9029 77.7388L34.8249 80.4887L30.5827 81.7224ZM28.2895 78.0253C27.8475 77.8521 27.4509 77.8534 27.0995 78.0306C26.7519 78.1979 26.4822 78.5259 26.2905 79.0153L25.4115 81.2581L28.1902 82.3468L29.0692 80.1041C29.2645 79.6061 29.2962 79.1786 29.1644 78.8236C29.0231 78.4646 28.7314 78.1985 28.2895 78.0253Z" fill="white"/>
<path d="M39.9807 72.0296C39.561 72.7903 39.041 73.4609 38.4207 74.0412C37.8053 74.6129 37.1483 75.0404 36.4496 75.3236L35.4935 73.3252C36.5928 72.8595 37.4451 72.0777 38.0502 70.9816C38.3527 70.433 38.499 69.9489 38.489 69.528C38.4838 69.0985 38.3221 68.7957 38.0038 68.62C37.7032 68.454 37.3859 68.475 37.052 68.683C36.718 68.891 36.3351 69.3027 35.9033 69.9179C35.064 71.1042 34.2553 71.8689 33.4774 72.2127C32.7044 72.5473 31.8979 72.4827 31.0578 72.019C30.492 71.7068 30.0802 71.2721 29.8226 70.7149C29.565 70.157 29.4755 69.5253 29.5539 68.8187C29.6323 68.1122 29.879 67.3832 30.2938 66.6316C30.6501 65.9861 31.0894 65.4095 31.6118 64.9019C32.139 64.3854 32.7 63.9856 33.2947 63.7024L34.2563 65.5654C33.3522 66.0123 32.6585 66.6735 32.1754 67.5489C31.8777 68.0883 31.727 68.5703 31.7233 68.9951C31.7245 69.4107 31.8754 69.7019 32.176 69.8678C32.4678 70.0292 32.7689 70.016 33.0793 69.8303C33.3946 69.6347 33.7727 69.2322 34.2134 68.6218C35.0478 67.4442 35.879 66.6802 36.707 66.3296C37.526 65.9742 38.3556 66.0283 39.1956 66.4918C39.7792 66.8139 40.2062 67.263 40.4766 67.8391C40.7381 68.4102 40.8292 69.0603 40.7498 69.7895C40.6617 70.5133 40.4052 71.2603 39.9807 72.0296Z" fill="white"/>
<path d="M35.6973 59.2622L37.1536 57.2493L45.7454 63.4653L44.289 65.4783L35.6973 59.2622Z" fill="white"/>
<path d="M45.5008 47.2126L47.1652 48.5993L45.0899 51.0901L51.5729 56.4915L49.9824 58.4003L43.4996 52.9988L41.4341 55.4779L39.7697 54.0912L45.5008 47.2126Z" fill="white"/>
<path d="M55.3698 38.1321L56.7633 45.7707L59.6531 48.7505L57.8804 50.4696L54.9906 47.4898L47.5071 45.7573L49.5951 43.7324L54.2691 44.9397L53.2491 40.1887L55.3698 38.1321Z" fill="white"/>
<path d="M72.7488 39.6149C71.8115 40.2661 70.8565 40.6529 69.8843 40.7752C68.9141 40.8836 67.9948 40.7289 67.1267 40.3113C66.2669 39.888 65.52 39.2202 64.8861 38.3078C64.2522 37.3955 63.8869 36.4625 63.7901 35.5091C63.7016 34.5498 63.8802 33.6386 64.3259 32.7756C64.7742 31.8984 65.4669 31.1343 66.4041 30.4831C67.3413 29.8319 68.295 29.4522 69.2651 29.3439C70.238 29.2216 71.1542 29.372 72.0138 29.7954C72.8819 30.2129 73.6328 30.8779 74.267 31.7902C74.9007 32.7026 75.2616 33.6384 75.3506 34.5977C75.4474 35.5511 75.2715 36.4665 74.823 37.3436C74.3777 38.2066 73.6861 38.9638 72.7488 39.6149ZM71.4868 37.7985C72.0091 37.4355 72.3918 37.0037 72.6342 36.5031C72.8792 35.9885 72.9655 35.449 72.8931 34.8844C72.8292 34.3141 72.6066 33.7553 72.2265 33.2079C71.8458 32.6605 71.3999 32.2572 70.8881 31.998C70.3842 31.7332 69.8514 31.63 69.2888 31.6884C68.7296 31.7328 68.1887 31.9364 67.6661 32.2995C67.1436 32.6626 66.7639 33.0985 66.5272 33.6074C66.2847 34.1079 66.1955 34.6434 66.2597 35.2136C66.3322 35.7782 66.5586 36.3342 66.9389 36.8816C67.3192 37.429 67.7613 37.8351 68.2651 38.1C68.7772 38.3591 69.3132 38.4665 69.8724 38.4221C70.4264 38.3694 70.9645 38.1616 71.4868 37.7985Z" fill="white"/>
<path d="M83.4601 24.1764L78.7038 26.6204L79.8598 28.8707L84.3466 26.5651L85.309 28.4381L80.8221 30.7437L82.5603 34.1258L80.3505 35.2613L75.5034 25.829L82.4701 22.2495L83.4601 24.1764Z" fill="white"/>
<path d="M103.769 26.3188L102.426 24.7508L97.46 26.3807L97.3066 28.44L94.7878 29.2668L96.0004 17.7076L98.5192 16.8809L106.317 25.4826L103.769 26.3188ZM97.9942 19.5564L97.6432 24.0724L100.925 22.9953L97.9942 19.5564Z" fill="white"/>
<path d="M112.767 25.0962C111.271 25.3931 110.025 25.2131 109.03 24.5561C108.043 23.8872 107.402 22.8098 107.107 21.3239L105.932 15.4099L108.37 14.9261L109.543 20.84C109.701 21.6326 110.023 22.2173 110.51 22.5943C111.006 22.9694 111.616 23.0851 112.339 22.9416C113.043 22.802 113.552 22.4639 113.868 21.9276C114.184 21.3913 114.263 20.7269 114.105 19.9344L112.931 14.0204L115.369 13.5366L116.542 19.4506C116.837 20.9365 116.656 22.1772 116 23.1725C115.34 24.158 114.263 24.7992 112.767 25.0962Z" fill="white"/>
<path d="M127.018 23.9561C125.88 24.0335 124.862 23.8699 123.963 23.4654C123.076 23.0601 122.366 22.4554 121.836 21.6513C121.316 20.8465 121.019 19.8999 120.944 18.8117C120.87 17.7234 121.042 16.7451 121.459 15.8765C121.885 14.9972 122.51 14.3017 123.336 13.79C124.161 13.2683 125.123 12.97 126.221 12.8954C127.782 12.7892 129.16 13.2472 130.353 14.2695L128.93 15.8998C128.212 15.3009 127.379 15.0336 126.431 15.098C125.797 15.1411 125.242 15.3206 124.767 15.6363C124.302 15.9412 123.951 16.3549 123.713 16.8772C123.485 17.3989 123.394 17.9871 123.438 18.6421C123.483 19.2971 123.653 19.8675 123.95 20.3535C124.256 20.8388 124.66 21.2061 125.163 21.4554C125.675 21.6938 126.249 21.7915 126.883 21.7484C127.387 21.714 127.865 21.5905 128.316 21.3776C128.767 21.1647 129.152 20.8753 129.472 20.5094L131.033 22.028C129.969 23.2038 128.631 23.8464 127.018 23.9561Z" fill="white"/>
<path d="M143.82 24.5655L140.597 24.3986L137.093 20L136.876 24.2059L134.41 24.0782L134.959 13.4878L137.425 13.6155L137.21 17.7609L140.904 13.7957L143.96 13.954L139.228 18.9121L143.82 24.5655Z" fill="white"/>
<path d="M147.216 14.8979L149.668 15.3003L148.314 23.5524L153.576 24.4159L153.213 26.6284L145.499 25.3625L147.216 14.8979Z" fill="white"/>
<path d="M163.644 29.7881L163.381 27.7398L158.336 26.3752L157.077 28.0121L154.518 27.3198L161.879 18.3252L164.438 19.0175L166.232 30.4882L163.644 29.7881ZM162.53 20.9653L159.757 24.5466L163.091 25.4484L162.53 20.9653Z" fill="white"/>
<path d="M178.571 24.7691L180.855 25.7077L176.824 35.5163L174.764 34.6697L172.816 26.7771L171.756 29.4369L170.351 32.8558L168.066 31.9172L172.098 22.1086L174.157 22.9552L176.094 30.8759L177.143 28.2441L178.571 24.7691Z" fill="white"/>
<path d="M189.43 30.9693C190.379 31.508 191.101 32.1682 191.599 32.9498C192.104 33.7364 192.351 34.5908 192.338 35.5128C192.339 36.431 192.078 37.3512 191.554 38.2732C191.03 39.1954 190.372 39.8955 189.577 40.3736C188.797 40.8479 187.939 41.0693 187.004 41.038C186.079 41.0116 185.142 40.7291 184.193 40.1903L180.413 38.0431L185.65 28.822L189.43 30.9693ZM185.263 38.3066C186.036 38.7456 186.799 38.8538 187.552 38.6313C188.306 38.4089 188.92 37.8805 189.393 37.0463C189.708 36.493 189.87 35.952 189.88 35.4234C189.903 34.8909 189.78 34.4026 189.509 33.9586C189.253 33.5109 188.87 33.1423 188.361 32.8531L186.74 31.9328L183.643 37.3864L185.263 38.3066Z" fill="white"/>
</svg>
