<svg width="247" height="253" viewBox="0 0 247 253" fill="none" xmlns="http://www.w3.org/2000/svg">
<path fill-rule="evenodd" clip-rule="evenodd" d="M123.5 247C191.707 247 247 191.707 247 123.5C247 55.2928 191.707 0 123.5 0C55.2928 0 0 55.2928 0 123.5C0 191.707 55.2928 247 123.5 247ZM123.829 214.067C173.666 214.067 214.067 173.371 214.067 123.171C214.067 72.9704 173.666 32.2747 123.829 32.2747C73.9926 32.2747 33.592 72.9704 33.592 123.171C33.592 173.371 73.9926 214.067 123.829 214.067Z" fill="#0B1523"/>
<path d="M70.3416 116.913C69.6968 132.721 69.6968 146.553 63.8906 167.301C75.825 163.349 84.6057 155.498 89.0504 150.835C100.662 138.649 103.999 130.087 107.113 116.913C110.016 104.634 107.577 103.411 112.597 84.3093C115.28 74.1 118.295 65.5373 123.564 58.6215C130.338 49.7294 133.563 46.7652 142.272 39.52C125.499 41.8254 118.725 44.2584 106.791 49.7294C95.2761 55.0078 84.2118 63.8906 78.4057 74.1C71.3066 86.5824 71.0668 99.1445 70.3416 116.913Z" fill="#FAFAFA" stroke="#0B1523" stroke-width="2"/>
<path d="M169.042 58.9491C184.565 55.021 198.265 52.1328 217.614 42.1548C216.168 54.585 210.208 64.7623 206.509 70.0579C196.842 83.8938 189.051 88.926 176.648 94.7052C165.086 100.092 163.371 97.9761 145.49 106.845C135.933 111.586 128.077 116.306 122.316 122.873C114.91 131.317 112.642 135.072 107.267 145.053C106.081 128.262 107.089 121.167 110.04 108.42C112.886 96.1207 119.395 83.5072 128.306 75.7297C139.201 66.2205 151.594 63.3644 169.042 58.9491Z" fill="#FAFAFA" stroke="#0B1523" stroke-width="2"/>
<path d="M153.895 152.114C138.489 155.789 124.897 158.428 105.667 168.304C107.168 155.388 113.13 144.942 116.825 139.523C126.481 125.365 134.229 120.331 146.552 114.643C158.04 109.341 164.784 109.101 177.497 102.833C186.993 98.1513 194.806 93.4438 200.55 86.7557C207.936 78.1561 210.204 74.3036 215.585 64.0459C216.669 81.5779 215.63 88.9451 212.637 102.151C209.749 114.892 203.229 127.862 194.356 135.727C183.507 145.343 171.21 147.985 153.895 152.114Z" fill="#FAFAFA" stroke="#0B1523" stroke-width="2"/>
<path d="M140.218 193.534C124.779 191.558 111.367 189.26 90.2373 191.672C96.1521 180.284 105.296 172.727 110.593 169.017C124.435 159.323 133.319 157.378 146.635 156.424C159.048 155.535 165.327 157.661 179.204 156.307C189.572 155.296 198.4 153.675 206.024 149.508C215.829 144.149 219.265 141.387 227.81 133.801C222.648 150.345 219.107 156.777 211.719 167.912C204.592 178.656 194.048 188.346 183.137 192.509C169.795 197.599 157.573 195.754 140.218 193.534Z" fill="#FAFAFA" stroke="#0B1523" stroke-width="2"/>
<path d="M67.1843 109.668C66.5257 125.476 66.5257 139.308 60.5977 160.056C72.783 156.104 81.7481 148.254 86.2857 143.59C98.1417 131.404 101.549 122.842 104.728 109.668C107.692 97.3887 105.202 96.1656 110.327 77.0642C113.066 66.8549 116.146 58.2922 121.524 51.3764C128.44 42.4842 131.734 39.5201 140.626 32.2749C123.5 34.5802 116.584 37.0133 104.399 42.4842C92.6424 47.7627 81.3457 56.6456 75.4177 66.8549C68.1697 79.3379 67.9247 91.8994 67.1843 109.668Z" fill="#0B1523"/>
<path d="M167.686 49.4554C183.495 45.437 197.447 42.4823 217.152 32.2749C215.68 44.991 209.61 55.4023 205.843 60.8195C195.998 74.9736 188.064 80.1217 175.432 86.0339C163.657 91.5443 161.91 89.3799 143.7 98.453C133.967 103.302 125.966 108.131 120.1 114.849C112.557 123.487 110.247 127.328 104.773 137.54C103.565 120.362 104.593 113.104 107.597 100.064C110.496 87.4823 117.124 74.5784 126.2 66.6223C137.295 56.8942 149.916 53.9722 167.686 49.4554Z" fill="#0B1523"/>
<path d="M152.259 144.764C136.57 148.522 122.728 151.222 103.144 161.325C104.672 148.112 110.743 137.426 114.507 131.883C124.341 117.399 132.232 112.248 144.782 106.43C156.48 101.007 163.35 100.76 176.296 94.3488C185.968 89.559 193.924 84.7435 199.774 77.9013C207.296 69.1041 209.606 65.1628 215.086 54.6694C216.19 72.6049 215.132 80.1414 212.084 93.6506C209.143 106.685 202.503 119.953 193.467 127.999C182.417 137.837 169.894 140.539 152.259 144.764Z" fill="#0B1523"/>
<path d="M137.604 188.071C121.766 186.04 108.01 183.672 86.3291 186.197C92.4099 174.382 101.8 166.535 107.239 162.681C121.45 152.613 130.567 150.586 144.23 149.581C156.965 148.645 163.405 150.842 177.643 149.423C188.281 148.363 197.34 146.672 205.167 142.341C215.231 136.774 218.761 133.904 227.535 126.029C222.221 143.191 218.58 149.865 210.989 161.42C203.665 172.57 192.836 182.63 181.637 186.959C167.943 192.253 155.406 190.354 137.604 188.071Z" fill="#0B1523"/>
<path d="M52.4189 158.401L51.9781 158.89C51.4913 159.431 51.535 160.264 52.0756 160.751L94.1713 198.654C94.712 199.141 95.5449 199.097 96.0318 198.556L96.4725 198.067C96.9593 197.526 96.9157 196.693 96.375 196.206L54.2793 158.303C53.7386 157.816 52.9057 157.86 52.4189 158.401Z" fill="#0B1523"/>
<path d="M47.5707 163.784L44.4856 167.211C43.5119 168.292 43.5993 169.958 44.6806 170.931L84.3289 206.631C85.4102 207.604 87.0761 207.517 88.0497 206.436L91.1349 203.009C92.1085 201.928 92.0212 200.262 90.9399 199.289L51.2916 163.589C50.2103 162.615 48.5444 162.703 47.5707 163.784Z" fill="#0B1523"/>
<path d="M33.6353 223.06C21.6132 212.235 20.6426 193.714 31.4673 181.692L39.2083 173.095C40.182 172.014 41.8479 171.926 42.9292 172.9L82.5492 208.574C83.6307 209.548 83.7177 211.214 82.7442 212.295L75.0029 220.892C64.1784 232.914 45.6574 233.885 33.6353 223.06Z" fill="#0B1523"/>
<path d="M54.8844 167.404L54.4437 167.893C54.2003 168.164 54.2221 168.58 54.4924 168.824L96.5881 206.727C96.8584 206.97 97.2749 206.948 97.5183 206.678L97.9591 206.188C98.2025 205.918 98.1806 205.502 97.9103 205.258L55.8146 167.355C55.5443 167.112 55.1278 167.134 54.8844 167.404Z" fill="#FAFAFA" stroke="#0B1523" stroke-width="2"/>
<path d="M50.0362 172.788L46.9511 176.214C46.2209 177.025 46.2864 178.275 47.0974 179.005L86.7456 214.704C87.5566 215.435 88.806 215.369 89.5363 214.558L92.6214 211.132C93.3516 210.321 93.2862 209.071 92.4752 208.341L52.8269 172.642C52.0159 171.911 50.7665 171.977 50.0362 172.788Z" fill="#FAFAFA" stroke="#0B1523" stroke-width="2"/>
<path d="M33.9319 190.695L41.6729 182.098C42.4032 181.287 43.6526 181.221 44.4636 181.952L84.0837 217.626C84.8945 218.356 84.9597 219.605 84.2299 220.417L76.4886 229.014C65.9071 240.766 47.8029 241.714 36.0512 231.133C24.2994 220.552 23.3506 202.447 33.9319 190.695Z" fill="#FAFAFA" stroke="#0B1523" stroke-width="2"/>
<path d="M52.4189 158.401L51.9781 158.89C51.4913 159.431 51.535 160.264 52.0756 160.751L94.1713 198.654C94.712 199.141 95.5449 199.097 96.0318 198.556L96.4725 198.067C96.9593 197.526 96.9157 196.693 96.375 196.206L54.2793 158.303C53.7386 157.816 52.9057 157.86 52.4189 158.401Z" fill="#0B1523"/>
<path d="M47.5707 163.784L44.4856 167.211C43.5119 168.292 43.5993 169.958 44.6806 170.931L84.3289 206.631C85.4102 207.604 87.0761 207.517 88.0497 206.436L91.1349 203.009C92.1085 201.928 92.0212 200.262 90.9399 199.289L51.2916 163.589C50.2103 162.615 48.5444 162.703 47.5707 163.784Z" fill="#0B1523"/>
<path d="M33.6353 223.06C21.6132 212.235 20.6426 193.714 31.4673 181.692L39.2083 173.095C40.182 172.014 41.8479 171.926 42.9292 172.9L82.5492 208.574C83.6307 209.548 83.7177 211.214 82.7442 212.295L75.0029 220.892C64.1784 232.914 45.6574 233.885 33.6353 223.06Z" fill="#0B1523"/>
<path d="M101.188 226.302C101.645 226.628 101.972 227.05 102.17 227.568C102.37 228.076 102.41 228.611 102.289 229.174C102.092 230.083 101.589 230.718 100.776 231.08C99.9749 231.444 98.9618 231.493 97.7374 231.229L92.6143 230.123L94.8518 219.757L99.9755 220.864C101.091 221.104 101.917 221.541 102.451 222.173C102.986 222.805 103.163 223.546 102.979 224.395C102.87 224.898 102.656 225.317 102.336 225.651C102.028 225.977 101.645 226.194 101.188 226.302ZM96.804 222.271L96.3601 224.33L99.1436 224.93C99.5289 225.014 99.8444 224.989 100.09 224.856C100.336 224.723 100.494 224.494 100.564 224.168C100.634 223.842 100.58 223.567 100.401 223.342C100.234 223.11 99.9637 222.953 99.5882 222.872L96.804 222.271ZM98.342 229.221C98.7761 229.315 99.1344 229.284 99.4157 229.128C99.7074 228.973 99.8925 228.714 99.9716 228.348C100.053 227.974 99.9907 227.661 99.7865 227.41C99.5941 227.152 99.2813 226.975 98.8466 226.881L95.9445 226.255L95.4393 228.595L98.342 229.221Z" fill="#FAFAFA"/>
<path d="M114.964 233.802L114.314 231.841L109.101 231.468L108.179 233.316L105.534 233.126L111.037 222.889L113.681 223.078L117.638 233.993L114.964 233.802ZM112.181 225.355L110.145 229.402L113.59 229.648L112.181 225.355Z" fill="#FAFAFA"/>
<path d="M124.489 223.461C125.578 223.398 126.543 223.559 127.385 223.946C128.237 224.331 128.908 224.915 129.398 225.696C129.898 226.466 130.179 227.38 130.24 228.439C130.301 229.498 130.129 230.444 129.721 231.276C129.324 232.099 128.724 232.75 127.923 233.232C127.131 233.713 126.19 233.985 125.102 234.048L120.761 234.299L120.148 223.712L124.489 223.461ZM124.976 231.885C125.864 231.833 126.563 231.51 127.075 230.914C127.587 230.318 127.815 229.541 127.759 228.583C127.723 227.947 127.565 227.405 127.286 226.956C127.016 226.496 126.647 226.153 126.179 225.928C125.721 225.691 125.199 225.59 124.614 225.623L122.754 225.732L123.116 231.993L124.976 231.885Z" fill="#FAFAFA"/>
<path d="M142.762 221.537L144.967 221.227L146.443 231.729L143.998 232.072L143.074 225.501L140.515 229.716L140.035 229.784L136.381 226.427L137.307 233.013L134.862 233.356L133.386 222.855L135.591 222.545L139.804 226.512L142.762 221.537Z" fill="#FAFAFA"/>
<path d="M148.727 220.027L151.106 219.313L154.153 229.47L151.774 230.184L148.727 220.027Z" fill="#FAFAFA"/>
<path d="M162.038 215.555L164.322 214.616L168.351 224.425L166.292 225.271L159.357 221.029L160.473 223.666L161.878 227.085L159.594 228.023L155.563 218.214L157.623 217.369L164.57 221.639L163.466 219.03L162.038 215.555Z" fill="#FAFAFA"/>
<path d="M174.916 209.387L175.947 211.292L173.096 212.835L177.112 220.256L174.927 221.439L170.911 214.018L168.073 215.553L167.042 213.648L174.916 209.387Z" fill="#FAFAFA"/>
<path d="M187.58 214.4C186.646 215.056 185.693 215.447 184.721 215.574C183.751 215.686 182.832 215.536 181.962 215.122C181.1 214.703 180.35 214.039 179.712 213.129C179.074 212.22 178.704 211.288 178.603 210.335C178.51 209.377 178.684 208.465 179.126 207.6C179.57 206.72 180.26 205.953 181.194 205.298C182.129 204.642 183.08 204.258 184.05 204.145C185.022 204.019 185.939 204.165 186.8 204.584C187.671 204.997 188.425 205.659 189.062 206.569C189.701 207.478 190.066 208.412 190.159 209.371C190.26 210.324 190.089 211.24 189.645 212.12C189.203 212.984 188.515 213.744 187.58 214.4ZM186.31 212.59C186.831 212.224 187.211 211.791 187.452 211.289C187.694 210.773 187.779 210.233 187.703 209.669C187.636 209.099 187.412 208.541 187.029 207.996C186.646 207.45 186.198 207.048 185.685 206.792C185.179 206.529 184.646 206.429 184.085 206.49C183.526 206.537 182.985 206.743 182.464 207.108C181.943 207.474 181.566 207.911 181.332 208.421C181.091 208.923 181.004 209.459 181.071 210.029C181.146 210.593 181.376 211.148 181.758 211.693C182.141 212.239 182.585 212.643 183.09 212.906C183.603 213.163 184.139 213.268 184.699 213.221C185.252 213.165 185.789 212.955 186.31 212.59Z" fill="#FAFAFA"/>
<path d="M194.079 195.586L195.897 193.915L203.074 201.722L201.434 203.229L193.46 201.649L195.42 203.737L197.922 206.458L196.104 208.129L188.927 200.322L190.566 198.815L198.561 200.416L196.622 198.351L194.079 195.586Z" fill="#FAFAFA"/>
<path d="M214.485 189.435C213.807 190.353 213.024 191.023 212.134 191.446C211.25 191.86 210.331 192.01 209.374 191.894C208.424 191.77 207.51 191.384 206.632 190.736C205.755 190.089 205.12 189.325 204.727 188.445C204.333 187.551 204.208 186.624 204.352 185.663C204.488 184.697 204.883 183.771 205.537 182.885C206.466 181.625 207.707 180.872 209.258 180.624L209.58 182.764C208.659 182.924 207.916 183.386 207.352 184.149C206.974 184.662 206.752 185.201 206.686 185.766C206.617 186.318 206.705 186.855 206.949 187.374C207.199 187.885 207.589 188.335 208.117 188.725C208.645 189.115 209.19 189.354 209.752 189.443C210.321 189.523 210.862 189.453 211.378 189.231C211.891 188.995 212.337 188.62 212.715 188.109C213.015 187.702 213.229 187.258 213.359 186.777C213.489 186.295 213.517 185.814 213.445 185.334L215.613 185.126C215.821 186.698 215.445 188.134 214.485 189.435Z" fill="#FAFAFA"/>
<path d="M210.199 177.046L211.42 174.882L218.704 178.99L221.323 174.345L223.276 175.447L219.436 182.256L210.199 177.046Z" fill="#FAFAFA"/>
<path d="M227.211 167.953C226.642 169.368 225.81 170.313 224.716 170.787C223.616 171.248 222.363 171.196 220.958 170.631L215.363 168.382L216.291 166.077L221.885 168.326C222.634 168.628 223.3 168.678 223.882 168.476C224.467 168.265 224.897 167.817 225.172 167.134C225.44 166.469 225.436 165.857 225.159 165.299C224.882 164.742 224.369 164.313 223.62 164.011L218.026 161.762L218.952 159.457L224.546 161.706C225.952 162.272 226.892 163.101 227.366 164.195C227.831 165.286 227.779 166.538 227.211 167.953Z" fill="#FAFAFA"/>
<path d="M227.119 150.096C227.459 149.649 227.89 149.335 228.415 149.153C228.928 148.968 229.465 148.945 230.024 149.084C230.925 149.308 231.545 149.831 231.882 150.654C232.221 151.467 232.239 152.48 231.938 153.696L230.675 158.783L220.383 156.228L221.646 151.14C221.921 150.033 222.383 149.222 223.031 148.706C223.679 148.191 224.424 148.037 225.267 148.247C225.767 148.371 226.18 148.598 226.503 148.928C226.82 149.246 227.025 149.635 227.119 150.096ZM222.956 154.353L224.999 154.861L225.686 152.097C225.781 151.715 225.765 151.399 225.64 151.149C225.514 150.899 225.29 150.734 224.966 150.654C224.643 150.574 224.366 150.619 224.137 150.791C223.899 150.951 223.734 151.217 223.642 151.59L222.956 154.353ZM229.949 153.03C230.056 152.599 230.036 152.24 229.889 151.954C229.744 151.658 229.49 151.465 229.127 151.375C228.754 151.282 228.44 151.334 228.183 151.53C227.919 151.715 227.733 152.022 227.626 152.454L226.911 155.336L229.234 155.913L229.949 153.03Z" fill="#FAFAFA"/>
<path d="M14.5502 168.424L14.0314 166.828L16.6386 162.162C16.856 161.752 17.0323 161.389 17.1673 161.074C17.3058 160.757 17.393 160.463 17.4291 160.191C17.464 159.916 17.4366 159.64 17.3469 159.364C17.2471 159.057 17.0912 158.815 16.8793 158.639C16.6663 158.459 16.4193 158.349 16.1383 158.308C15.8562 158.264 15.5617 158.292 15.2547 158.392C14.9341 158.496 14.6755 158.652 14.4789 158.859C14.2822 159.066 14.1584 159.312 14.1076 159.596C14.0567 159.88 14.0855 160.19 14.1942 160.524L12.0914 161.207C11.8686 160.522 11.8303 159.876 11.9766 159.27C12.1229 158.665 12.4309 158.133 12.9005 157.675C13.37 157.217 13.9697 156.869 14.6997 156.632C15.4501 156.388 16.1465 156.309 16.7889 156.394C17.4337 156.475 17.9871 156.698 18.4495 157.065C18.9117 157.431 19.241 157.916 19.4372 158.52C19.5658 158.916 19.6143 159.332 19.5827 159.768C19.5544 160.204 19.419 160.721 19.1764 161.32C18.9326 161.916 18.5573 162.659 18.0505 163.547L17.008 165.543L17.0313 165.615L21.4312 164.185L22.02 165.996L14.5502 168.424ZM29.105 163.948C28.2239 164.23 27.3963 164.26 26.6222 164.036C25.8515 163.812 25.1631 163.347 24.5571 162.643C23.9544 161.937 23.4686 161.011 23.0995 159.864C22.728 158.721 22.5804 157.693 22.6564 156.778C22.7359 155.862 23.0229 155.092 23.5175 154.467C24.0145 153.838 24.7012 153.381 25.5778 153.096C26.4544 152.811 27.2769 152.778 28.0454 152.995C28.8173 153.212 29.5046 153.668 30.1073 154.362C30.709 155.052 31.1937 155.97 31.5617 157.113C31.9353 158.263 32.0841 159.301 32.008 160.227C31.9353 161.151 31.6533 161.931 31.162 162.566C30.6706 163.201 29.985 163.662 29.105 163.948ZM28.508 162.111C29.1083 161.916 29.4894 161.458 29.6513 160.738C29.8132 160.018 29.6962 159.055 29.3003 157.848C29.042 157.054 28.7451 156.418 28.4096 155.943C28.0774 155.467 27.7197 155.143 27.3365 154.974C26.9567 154.803 26.5672 154.783 26.1682 154.913C25.5713 155.106 25.1908 155.56 25.0266 156.273C24.8625 156.987 24.9722 157.939 25.3557 159.131C25.6173 159.936 25.9159 160.581 26.2514 161.068C26.5892 161.551 26.9502 161.878 27.3345 162.051C27.7178 162.22 28.1089 162.241 28.508 162.111Z" fill="#FAFAFA"/>
<path d="M216.761 100.581L216.242 98.985L218.85 94.319C219.067 93.9093 219.243 93.5464 219.378 93.2309C219.517 92.9141 219.604 92.6203 219.64 92.3483C219.675 92.073 219.647 91.797 219.558 91.521C219.458 91.2141 219.302 90.9723 219.09 90.7958C218.877 90.616 218.63 90.506 218.349 90.4652C218.067 90.421 217.773 90.4494 217.466 90.5488C217.145 90.6529 216.886 90.809 216.69 91.0158C216.493 91.2233 216.369 91.469 216.318 91.7535C216.268 92.0374 216.297 92.347 216.405 92.6809L214.302 93.3646C214.08 92.6789 214.041 92.0334 214.188 91.4275C214.334 90.8222 214.641 90.2899 215.111 89.8322C215.581 89.3737 216.181 89.0266 216.91 88.7888C217.661 88.5451 218.358 88.4661 219 88.5511C219.645 88.6321 220.198 88.8554 220.66 89.2223C221.123 89.5885 221.452 90.0733 221.648 90.6772C221.777 91.0731 221.825 91.4887 221.793 91.9254C221.765 92.3608 221.63 92.8779 221.387 93.4772C221.144 94.0733 220.768 94.8157 220.261 95.7042L219.219 97.7006L219.242 97.7724L223.642 96.3418L224.231 98.1531L216.761 100.581ZM226.15 95.4928L225.583 93.748L227.717 85.4349L229.222 84.9455L230.007 87.3609L229.116 87.65L227.777 92.9108L227.804 92.9925L234.02 90.9717L234.597 92.7474L226.15 95.4928ZM231.778 95.7002L231.007 93.3257L230.796 92.54L228.413 85.2083L230.49 84.5332L233.896 95.0113L231.778 95.7002Z" fill="#FAFAFA"/>
<path d="M23.2016 135.193C23.4639 136.696 23.2552 137.937 22.5754 138.917C21.8839 139.888 20.792 140.505 19.2996 140.766L13.3601 141.802L12.9326 139.355L18.8722 138.318C19.6681 138.179 20.2602 137.871 20.6483 137.393C21.0347 136.905 21.1645 136.298 21.0377 135.571C20.9143 134.865 20.5882 134.348 20.0593 134.02C19.5304 133.692 18.868 133.597 18.0721 133.736L12.1326 134.774L11.7051 132.326L17.6446 131.289C19.137 131.029 20.3731 131.238 21.353 131.918C22.323 132.599 22.9392 133.692 23.2016 135.193Z" fill="#FAFAFA"/>
<path d="M11.3556 120.821L11.1973 118.357L21.78 117.677L21.9228 119.899L15.6845 125.112L18.5399 124.898L22.2287 124.661L22.387 127.125L11.8043 127.806L11.6616 125.583L17.93 120.368L15.1049 120.58L11.3556 120.821Z" fill="#FAFAFA"/>
<path d="M11.9072 113.131L12.0561 110.651L22.6416 111.286L22.4927 113.767L11.9072 113.131Z" fill="#FAFAFA"/>
<path d="M13.6041 98.3516L13.9487 95.6313L23.9208 101.293L23.5913 103.893L12.5225 106.888L12.8671 104.168L16.6231 103.209L20.8995 102.238L17.0039 100.202L13.6041 98.3516Z" fill="#FAFAFA"/>
<path d="M24.2902 91.785L25.7538 86.1237L27.7778 86.6467L25.7114 94.6403L15.4443 91.9865L17.4691 84.1543L19.4785 84.6733L18.0566 90.1739L20.1394 90.712L21.4854 85.5052L23.4214 86.0058L22.0754 91.2126L24.2902 91.785Z" fill="#FAFAFA"/>
<path d="M27.5831 78.7227L27.0578 80.063L30.316 81.3395L29.4094 83.6528L19.5361 79.7831L21.4213 74.9735C21.7014 74.2589 22.0875 73.6885 22.5797 73.2636C23.0624 72.8342 23.6148 72.5733 24.2368 72.4811C24.8589 72.3883 25.499 72.4713 26.1572 72.7294C26.9094 73.0239 27.4762 73.4737 27.8573 74.0791C28.2422 74.6745 28.4075 75.374 28.353 76.1769L32.9032 74.739L31.8252 77.489L27.5831 78.7227ZM25.2899 75.0256C24.8479 74.8523 24.4512 74.8537 24.0998 75.0308C23.7522 75.1981 23.4825 75.5261 23.2909 76.0155L22.4119 78.2583L25.1905 79.3471L26.0695 77.1043C26.2648 76.6064 26.2966 76.1789 26.1647 75.8239C26.0234 75.4649 25.7318 75.1988 25.2899 75.0256Z" fill="#FAFAFA"/>
<path d="M36.9806 69.0293C36.561 69.7901 36.0409 70.4606 35.4207 71.0409C34.8052 71.6126 34.1482 72.0401 33.4495 72.3233L32.4934 70.3249C33.5927 69.8593 34.445 69.0774 35.0501 67.9814C35.3526 67.4327 35.4989 66.9486 35.4889 66.5277C35.4838 66.0983 35.3221 65.7954 35.0037 65.6198C34.7031 65.4538 34.3858 65.4748 34.0519 65.6827C33.718 65.8908 33.3351 66.3025 32.9033 66.9177C32.0639 68.1039 31.2553 68.8686 30.4774 69.2125C29.7044 69.5471 28.8978 69.4825 28.0578 69.0188C27.4919 68.7066 27.0801 68.2719 26.8225 67.7146C26.565 67.1568 26.4754 66.5251 26.5538 65.8185C26.6323 65.112 26.879 64.3829 27.2937 63.6314C27.65 62.9859 28.0893 62.4093 28.6117 61.9016C29.139 61.3852 29.7 60.9853 30.2946 60.7021L31.2563 62.5652C30.3521 63.0121 29.6585 63.6733 29.1753 64.5486C28.8777 65.088 28.727 65.5701 28.7232 65.9949C28.7244 66.4105 28.8753 66.7016 29.1759 66.8676C29.4677 67.029 29.7689 67.0158 30.0793 66.8301C30.3946 66.6344 30.7727 66.232 31.2133 65.6215C32.0478 64.444 32.8789 63.6799 33.7069 63.3294C34.5259 62.974 35.3555 63.028 36.1955 63.4916C36.7791 63.8137 37.2061 64.2628 37.4765 64.8388C37.7381 65.41 37.8292 66.0601 37.7498 66.7892C37.6616 67.5131 37.4052 68.26 36.9806 69.0293Z" fill="#FAFAFA"/>
<path d="M32.6973 56.2625L34.1536 54.2495L42.7453 60.4655L41.2889 62.4785L32.6973 56.2625Z" fill="#FAFAFA"/>
<path d="M42.5007 44.2124L44.165 45.5991L42.0898 48.0898L48.5727 53.4912L46.9823 55.4001L40.4994 49.9986L38.4339 52.4777L36.7695 51.091L42.5007 44.2124Z" fill="#FAFAFA"/>
<path d="M52.3695 35.1318L53.763 42.7705L56.6528 45.7503L54.8802 47.4694L51.9904 44.4896L44.5068 42.7571L46.5949 40.7321L51.2688 41.9394L50.2489 37.1885L52.3695 35.1318Z" fill="#FAFAFA"/>
<path d="M69.7493 36.6149C68.812 37.2661 67.8569 37.6529 66.8847 37.7752C65.9145 37.8836 64.9953 37.7289 64.1271 37.3113C63.2673 36.888 62.5205 36.2202 61.8866 35.3078C61.2527 34.3955 60.8873 33.4625 60.7905 32.5091C60.7021 31.5498 60.8806 30.6386 61.3264 29.7756C61.7746 28.8984 62.4673 28.1343 63.4045 27.4831C64.3417 26.8319 65.2954 26.4522 66.2656 26.3439C67.2384 26.2216 68.1546 26.372 69.0142 26.7954C69.8823 27.2129 70.6332 27.8779 71.2675 28.7902C71.9011 29.7026 72.2621 30.6384 72.351 31.5977C72.4478 32.5511 72.2719 33.4665 71.8234 34.3436C71.3781 35.2066 70.6865 35.9638 69.7493 36.6149ZM68.4872 34.7985C69.0096 34.4355 69.3923 34.0037 69.6346 33.5031C69.8797 32.9885 69.966 32.449 69.8935 31.8844C69.8296 31.3141 69.607 30.7553 69.2269 30.2079C68.8462 29.6605 68.4003 29.2572 67.8885 28.998C67.3846 28.7332 66.8518 28.63 66.2893 28.6884C65.7301 28.7328 65.1891 28.9364 64.6665 29.2995C64.144 29.6626 63.7643 30.0985 63.5276 30.6074C63.2851 31.1079 63.1959 31.6434 63.2601 32.2136C63.3326 32.7782 63.559 33.3342 63.9394 33.8816C64.3197 34.429 64.7618 34.8351 65.2655 35.1C65.7776 35.3591 66.3136 35.4665 66.8729 35.4221C67.4268 35.3694 67.9649 35.1616 68.4872 34.7985Z" fill="#FAFAFA"/>
<path d="M80.4596 21.1764L75.7034 23.6204L76.8594 25.8707L81.3462 23.5651L82.3085 25.4381L77.8217 27.7437L79.5599 31.1258L77.3501 32.2613L72.5029 22.829L79.4696 19.2495L80.4596 21.1764Z" fill="#FAFAFA"/>
<path d="M100.77 23.3188L99.426 21.7508L94.4603 23.3807L94.3068 25.44L91.7881 26.2668L93.0007 14.7076L95.5194 13.8809L103.317 22.4826L100.77 23.3188ZM94.9945 16.5564L94.6434 21.0724L97.9249 19.9953L94.9945 16.5564Z" fill="#FAFAFA"/>
<path d="M109.767 22.0962C108.271 22.3931 107.026 22.2131 106.03 21.5561C105.043 20.8872 104.402 19.8098 104.107 18.3239L102.933 12.4099L105.37 11.9261L106.543 17.84C106.701 18.6326 107.023 19.2173 107.51 19.5943C108.006 19.9694 108.616 20.0851 109.339 19.9416C110.043 19.802 110.552 19.4639 110.868 18.9276C111.184 18.3913 111.263 17.7269 111.105 16.9344L109.932 11.0204L112.369 10.5366L113.542 16.4506C113.838 17.9365 113.656 19.1772 113 20.1725C112.34 21.158 111.263 21.7992 109.767 22.0962Z" fill="#FAFAFA"/>
<path d="M124.019 20.9561C122.88 21.0335 121.862 20.8699 120.964 20.4654C120.076 20.0601 119.366 19.4554 118.836 18.6513C118.316 17.8465 118.019 16.8999 117.944 15.8117C117.871 14.7234 118.042 13.7451 118.459 12.8765C118.885 11.9972 119.511 11.3017 120.336 10.79C121.161 10.2683 122.123 9.97005 123.221 9.89536C124.783 9.78918 126.161 10.2472 127.353 11.2695L125.931 12.8998C125.212 12.3009 124.379 12.0336 123.432 12.098C122.797 12.1411 122.242 12.3206 121.767 12.6363C121.302 12.9412 120.951 13.3549 120.713 13.8772C120.486 14.3989 120.394 14.9871 120.438 15.6421C120.483 16.2971 120.653 16.8675 120.95 17.3535C121.256 17.8388 121.661 18.2061 122.163 18.4554C122.676 18.6938 123.249 18.7915 123.884 18.7484C124.387 18.714 124.865 18.5905 125.316 18.3776C125.767 18.1647 126.153 17.8753 126.472 17.5094L128.033 19.028C126.969 20.2038 125.631 20.8464 124.019 20.9561Z" fill="#FAFAFA"/>
<path d="M140.821 21.5655L137.598 21.3986L134.094 17L133.876 21.2059L131.41 21.0782L131.959 10.4878L134.425 10.6155L134.21 14.7609L137.904 10.7957L140.96 10.954L136.228 15.9121L140.821 21.5655Z" fill="#FAFAFA"/>
<path d="M144.216 11.8979L146.668 12.3003L145.314 20.5524L150.576 21.4159L150.213 23.6284L142.499 22.3625L144.216 11.8979Z" fill="#FAFAFA"/>
<path d="M160.644 26.7881L160.382 24.7398L155.336 23.3752L154.077 25.0121L151.519 24.3198L158.879 15.3252L161.438 16.0175L163.232 27.4882L160.644 26.7881ZM159.531 17.9653L156.757 21.5466L160.091 22.4484L159.531 17.9653Z" fill="#FAFAFA"/>
<path d="M175.571 21.7688L177.855 22.7074L173.824 32.516L171.764 31.6695L169.816 23.7768L168.756 26.4367L167.351 29.8556L165.066 28.917L169.097 19.1084L171.157 19.9549L173.094 27.8756L174.143 25.2439L175.571 21.7688Z" fill="#FAFAFA"/>
<path d="M186.43 27.9695C187.378 28.5082 188.101 29.1684 188.598 29.95C189.103 30.7366 189.35 31.591 189.337 32.513C189.339 33.4312 189.077 34.3514 188.553 35.2735C188.03 36.1956 187.371 36.8957 186.577 37.3738C185.796 37.8481 184.939 38.0696 184.004 38.0382C183.079 38.0118 182.141 37.7293 181.193 37.1906L177.412 35.0433L182.649 25.8223L186.43 27.9695ZM182.263 35.3069C183.036 35.7458 183.799 35.854 184.552 35.6316C185.306 35.4092 185.919 34.8808 186.393 34.0465C186.707 33.4932 186.87 32.9523 186.88 32.4236C186.903 31.8912 186.78 31.4029 186.509 30.9589C186.253 30.5111 185.869 30.1426 185.36 29.8533L183.74 28.933L180.642 34.3866L182.263 35.3069Z" fill="#FAFAFA"/>
</svg>
