<svg width="375" height="384" viewBox="0 0 375 384" fill="none" xmlns="http://www.w3.org/2000/svg">
<path fill-rule="evenodd" clip-rule="evenodd" d="M187.5 375C291.053 375 375 291.053 375 187.5C375 83.9465 291.053 0 187.5 0C83.9465 0 0 83.9465 0 187.5C0 291.053 83.9465 375 187.5 375ZM188 325C263.663 325 325 263.215 325 187C325 110.785 263.663 49 188 49C112.337 49 51 110.785 51 187C51 263.215 112.337 325 188 325Z" fill="black"/>
<path d="M106.794 177.5C105.815 201.5 105.815 222.5 97 254C115.119 248 128.45 236.08 135.198 229C152.827 210.5 157.893 197.5 162.621 177.5C167.029 158.857 163.326 157 170.947 128C175.02 112.5 179.598 99.4999 187.597 89.0002C197.881 75.5 202.778 70.9997 216 60C190.535 63.5 180.251 67.1939 162.132 75.5C144.65 83.5138 127.852 96.9999 119.037 112.5C108.259 131.451 107.895 150.523 106.794 177.5Z" fill="white" stroke="black" stroke-width="2"/>
<path d="M256.643 89.4974C280.21 83.5337 301.009 79.1488 330.385 64C328.19 82.8718 319.142 98.3231 313.525 106.363C298.849 127.369 287.021 135.009 268.19 143.783C250.637 151.961 248.032 148.749 220.886 162.214C206.376 169.411 194.448 176.578 185.703 186.548C174.459 199.367 171.015 205.068 162.855 220.222C161.054 194.729 162.585 183.958 167.064 164.605C171.385 145.932 181.268 126.782 194.796 114.974C211.337 100.537 230.152 96.2008 256.643 89.4974Z" fill="white" stroke="black" stroke-width="2"/>
<path d="M233.646 230.943C210.257 236.521 189.621 240.529 160.426 255.522C162.705 235.913 171.756 220.054 177.366 211.827C192.026 190.331 203.789 182.688 222.498 174.053C239.939 166.004 250.179 165.639 269.479 156.123C283.897 149.015 295.758 141.868 304.479 131.714C315.692 118.658 319.136 112.809 327.305 97.2356C328.951 123.853 327.374 135.038 322.83 155.087C318.445 174.431 308.547 194.123 295.075 206.063C278.604 220.663 259.935 224.673 233.646 230.943Z" fill="white" stroke="black" stroke-width="2"/>
<path d="M212.882 293.827C189.442 290.827 169.08 287.338 137 291C145.98 273.711 159.863 262.238 167.905 256.605C188.919 241.887 202.408 238.934 222.624 237.486C241.469 236.136 251.003 239.364 272.071 237.309C287.811 235.774 301.214 233.313 312.79 226.986C327.675 218.85 332.892 214.656 345.865 203.139C338.028 228.257 332.652 238.022 321.436 254.928C310.616 271.239 294.608 285.951 278.042 292.271C257.786 299.999 239.231 297.198 212.882 293.827Z" fill="white" stroke="black" stroke-width="2"/>
<path d="M102 166.5C101 190.5 101 211.5 92 243C110.5 237 124.111 225.081 131 218C149 199.5 154.173 186.5 159 166.5C163.5 147.857 159.719 146 167.5 117C171.659 101.5 176.334 88.5 184.5 78.0003C195 64.5 200 59.9998 213.5 49C187.5 52.5 177 56.1939 158.5 64.5C140.651 72.5139 123.5 86 114.5 101.5C103.496 120.452 103.124 139.523 102 166.5Z" fill="black"/>
<path d="M254.583 75.0838C278.585 68.983 299.767 64.4972 329.684 49.0001C327.449 68.3059 318.234 84.1125 312.514 92.3371C297.567 113.826 285.521 121.642 266.344 130.618C248.467 138.984 245.814 135.698 218.168 149.473C203.391 156.835 191.243 164.167 182.337 174.366C170.886 187.48 167.378 193.312 159.068 208.815C157.234 182.736 158.794 171.717 163.355 151.919C167.756 132.817 177.82 113.226 191.598 101.147C208.444 86.3776 227.604 81.9414 254.583 75.0838Z" fill="black"/>
<path d="M231.162 219.783C207.343 225.489 186.327 229.588 156.594 244.927C158.915 224.867 168.132 208.643 173.846 200.227C188.776 178.237 200.756 170.417 219.81 161.584C237.571 153.35 248 152.976 267.656 143.242C282.34 135.97 294.419 128.659 303.3 118.271C314.72 104.915 318.228 98.9312 326.547 83C328.223 110.23 326.617 121.672 321.989 142.182C317.524 161.971 307.443 182.115 293.724 194.331C276.949 209.266 257.936 213.369 231.162 219.783Z" fill="black"/>
<path d="M208.914 285.532C184.868 282.449 163.983 278.854 131.067 282.688C140.299 264.749 154.555 252.836 162.813 246.985C184.388 231.699 198.23 228.622 218.973 227.096C238.308 225.675 248.085 229.011 269.702 226.857C285.852 225.247 299.606 222.68 311.489 216.105C326.769 207.652 332.127 203.296 345.449 191.339C337.38 217.395 331.853 227.527 320.328 245.071C309.208 261.998 292.768 277.272 275.765 283.845C254.975 291.882 235.941 288.998 208.914 285.532Z" fill="black"/>
<rect x="77.5762" y="242.716" width="5" height="90" rx="2" transform="rotate(-48 77.5762 242.716)" fill="black"/>
<rect x="64.8625" y="256.835" width="15" height="89" rx="4" transform="rotate(-48 64.8625 256.835)" fill="black"/>
<path d="M51.065 338.654C32.8129 322.219 31.3392 294.1 47.7735 275.848L59.5261 262.796C61.0043 261.154 63.5335 261.021 65.1752 262.5L125.327 316.661C126.969 318.139 127.101 320.668 125.623 322.31L113.87 335.362C97.4361 353.614 69.3172 355.088 51.065 338.654V338.654Z" fill="black"/>
<rect x="81.9884" y="255.642" width="3" height="88" rx="1" transform="rotate(-48 81.9884 255.642)" fill="white" stroke="black" stroke-width="2"/>
<rect x="69.2748" y="269.761" width="13" height="87" rx="3" transform="rotate(-48 69.2748 269.761)" fill="white" stroke="black" stroke-width="2"/>
<path d="M51.5167 289.517L63.2692 276.465C64.3779 275.234 66.2748 275.134 67.5061 276.243L127.658 330.404C128.889 331.512 128.988 333.409 127.88 334.641L116.127 347.693C100.062 365.535 72.5759 366.975 54.7342 350.911C36.8924 334.846 35.4519 307.359 51.5167 289.517Z" fill="white" stroke="black" stroke-width="2"/>
<rect x="77.5762" y="242.716" width="5" height="90" rx="2" transform="rotate(-48 77.5762 242.716)" fill="black"/>
<rect x="64.8625" y="256.835" width="15" height="89" rx="4" transform="rotate(-48 64.8625 256.835)" fill="black"/>
<path d="M51.065 338.654C32.8129 322.219 31.3392 294.1 47.7735 275.848L59.5261 262.796C61.0043 261.154 63.5335 261.021 65.1752 262.5L125.327 316.661C126.969 318.139 127.101 320.668 125.623 322.31L113.87 335.362C97.4361 353.614 69.3172 355.088 51.065 338.654V338.654Z" fill="black"/>
<path d="M153.625 343.576C154.318 344.071 154.815 344.712 155.116 345.498C155.42 346.27 155.48 347.082 155.296 347.937C154.998 349.316 154.233 350.28 153 350.83C151.783 351.383 150.245 351.458 148.386 351.057L140.608 349.378L144.005 333.64L151.784 335.32C153.478 335.685 154.731 336.348 155.543 337.308C156.355 338.267 156.623 339.392 156.344 340.681C156.179 341.445 155.854 342.081 155.368 342.588C154.9 343.083 154.319 343.412 153.625 343.576ZM146.969 337.457L146.295 340.582L150.521 341.494C151.106 341.621 151.585 341.583 151.958 341.381C152.331 341.179 152.571 340.831 152.677 340.336C152.784 339.842 152.702 339.424 152.43 339.083C152.177 338.73 151.766 338.492 151.196 338.369L146.969 337.457ZM149.304 348.008C149.963 348.15 150.507 348.103 150.934 347.866C151.377 347.632 151.658 347.238 151.778 346.683C151.901 346.114 151.807 345.639 151.497 345.258C151.205 344.866 150.73 344.598 150.07 344.456L145.664 343.505L144.897 347.057L149.304 348.008Z" fill="white"/>
<path d="M174.54 354.963L173.554 351.986L165.639 351.419L164.239 354.225L160.224 353.937L168.578 338.394L172.593 338.682L178.6 355.253L174.54 354.963ZM170.316 342.139L167.224 348.282L172.455 348.656L170.316 342.139Z" fill="white"/>
<path d="M189.002 339.263C190.655 339.167 192.121 339.412 193.399 339.999C194.692 340.584 195.711 341.47 196.455 342.656C197.214 343.825 197.64 345.213 197.733 346.821C197.826 348.428 197.564 349.864 196.946 351.128C196.342 352.377 195.432 353.366 194.215 354.097C193.013 354.827 191.585 355.24 189.932 355.336L183.342 355.717L182.412 339.644L189.002 339.263ZM189.742 352.052C191.089 351.974 192.151 351.483 192.928 350.578C193.705 349.673 194.052 348.493 193.967 347.039C193.912 346.074 193.672 345.251 193.249 344.569C192.839 343.871 192.279 343.35 191.568 343.008C190.872 342.649 190.08 342.495 189.192 342.546L186.368 342.71L186.918 352.216L189.742 352.052Z" fill="white"/>
<path d="M216.744 336.342L220.092 335.871L222.333 351.815L218.62 352.336L217.218 342.36L213.333 348.759L212.604 348.862L207.057 343.765L208.462 353.764L204.75 354.286L202.509 338.342L205.857 337.872L212.254 343.894L216.744 336.342Z" fill="white"/>
<path d="M225.799 334.049L229.412 332.965L234.038 348.386L230.425 349.47L225.799 334.049Z" fill="white"/>
<path d="M246.009 327.259L249.477 325.834L255.595 340.726L252.468 342.011L241.939 335.57L243.634 339.574L245.767 344.765L242.299 346.189L236.18 331.297L239.307 330.013L249.854 336.496L248.177 332.535L246.009 327.259Z" fill="white"/>
<path d="M265.561 317.895L267.126 320.788L262.797 323.13L268.894 334.397L265.577 336.193L259.48 324.926L255.171 327.257L253.606 324.364L265.561 317.895Z" fill="white"/>
<path d="M284.788 325.507C283.37 326.502 281.923 327.096 280.447 327.288C278.975 327.459 277.579 327.231 276.258 326.603C274.949 325.966 273.811 324.958 272.842 323.577C271.873 322.196 271.312 320.782 271.159 319.335C271.018 317.88 271.282 316.495 271.953 315.182C272.627 313.847 273.674 312.682 275.092 311.687C276.511 310.692 277.956 310.108 279.428 309.937C280.904 309.745 282.296 309.967 283.604 310.604C284.925 311.231 286.07 312.236 287.038 313.617C288.007 314.997 288.562 316.415 288.703 317.871C288.857 319.318 288.596 320.709 287.922 322.044C287.251 323.357 286.207 324.511 284.788 325.507ZM282.86 322.758C283.65 322.203 284.228 321.545 284.593 320.783C284.961 320 285.089 319.18 284.975 318.324C284.873 317.458 284.532 316.611 283.951 315.783C283.369 314.955 282.689 314.345 281.91 313.956C281.143 313.557 280.333 313.404 279.481 313.497C278.632 313.568 277.812 313.881 277.021 314.436C276.23 314.991 275.657 315.655 275.301 316.429C274.936 317.191 274.804 318.004 274.906 318.87C275.02 319.726 275.368 320.569 275.949 321.397C276.53 322.226 277.204 322.839 277.971 323.238C278.75 323.628 279.564 323.787 280.413 323.716C281.253 323.632 282.069 323.313 282.86 322.758Z" fill="white"/>
<path d="M294.654 296.942L297.414 294.405L308.31 306.258L305.821 308.546L293.714 306.148L296.69 309.317L300.488 313.449L297.728 315.986L286.832 304.133L289.321 301.845L301.459 304.276L298.515 301.141L294.654 296.942Z" fill="white"/>
<path d="M325.635 287.603C324.606 288.997 323.417 290.015 322.066 290.657C320.724 291.286 319.328 291.513 317.876 291.337C316.433 291.149 315.045 290.563 313.713 289.579C312.381 288.596 311.417 287.436 310.821 286.1C310.222 284.743 310.032 283.336 310.251 281.877C310.457 280.41 311.057 279.004 312.05 277.659C313.461 275.747 315.345 274.603 317.7 274.226L318.189 277.475C316.79 277.718 315.662 278.42 314.806 279.579C314.232 280.357 313.895 281.175 313.794 282.034C313.69 282.872 313.823 283.686 314.194 284.474C314.574 285.25 315.165 285.934 315.967 286.526C316.769 287.118 317.597 287.481 318.45 287.616C319.313 287.738 320.135 287.631 320.918 287.294C321.697 286.935 322.374 286.367 322.948 285.59C323.403 284.973 323.729 284.299 323.926 283.568C324.123 282.836 324.166 282.106 324.057 281.377L327.348 281.062C327.663 283.449 327.093 285.629 325.635 287.603Z" fill="white"/>
<path d="M319.128 268.794L320.981 265.509L332.04 271.746L336.017 264.694L338.982 266.366L333.151 276.704L319.128 268.794Z" fill="white"/>
<path d="M344.955 254.99C344.091 257.138 342.828 258.572 341.167 259.293C339.497 259.993 337.595 259.914 335.462 259.056L326.968 255.641L328.376 252.141L336.869 255.556C338.007 256.014 339.017 256.09 339.901 255.784C340.79 255.464 341.443 254.784 341.86 253.746C342.267 252.736 342.26 251.808 341.84 250.961C341.42 250.115 340.641 249.463 339.503 249.005L331.01 245.59L332.417 242.091L340.91 245.505C343.044 246.364 344.471 247.623 345.191 249.284C345.897 250.94 345.818 252.842 344.955 254.99Z" fill="white"/>
<path d="M344.817 227.878C345.333 227.2 345.988 226.723 346.784 226.446C347.564 226.166 348.378 226.131 349.227 226.342C350.596 226.682 351.536 227.476 352.048 228.725C352.563 229.959 352.591 231.498 352.133 233.344L350.216 241.067L334.59 237.188L336.508 229.464C336.925 227.783 337.626 226.551 338.61 225.768C339.594 224.986 340.726 224.753 342.006 225.071C342.765 225.259 343.391 225.604 343.882 226.105C344.363 226.588 344.674 227.179 344.817 227.878ZM338.496 234.342L341.599 235.113L342.641 230.916C342.785 230.336 342.762 229.856 342.571 229.477C342.381 229.098 342.04 228.847 341.549 228.725C341.058 228.604 340.638 228.673 340.289 228.934C339.929 229.176 339.678 229.58 339.538 230.146L338.496 234.342ZM349.114 232.333C349.276 231.679 349.246 231.134 349.022 230.699C348.802 230.249 348.416 229.956 347.866 229.82C347.3 229.679 346.823 229.758 346.433 230.056C346.031 230.336 345.749 230.803 345.587 231.458L344.501 235.833L348.028 236.709L349.114 232.333Z" fill="white"/>
<path d="M22.0901 255.704L21.3024 253.281L25.2607 246.197C25.5908 245.575 25.8584 245.024 26.0634 244.545C26.2737 244.064 26.4061 243.618 26.4609 243.205C26.5139 242.787 26.4723 242.368 26.336 241.949C26.1845 241.483 25.9479 241.116 25.6262 240.848C25.3028 240.575 24.9278 240.408 24.5012 240.346C24.0729 240.279 23.6258 240.322 23.1597 240.473C22.6729 240.631 22.2803 240.868 21.9818 241.182C21.6832 241.497 21.4953 241.87 21.4181 242.302C21.3408 242.733 21.3846 243.203 21.5496 243.71L18.3571 244.748C18.0188 243.707 17.9607 242.727 18.1828 241.807C18.4049 240.888 18.8725 240.08 19.5854 239.385C20.2983 238.689 21.2088 238.162 22.317 237.801C23.4563 237.431 24.5136 237.311 25.4889 237.44C26.4678 237.563 27.3081 237.902 28.01 238.459C28.7118 239.015 29.2117 239.751 29.5096 240.668C29.7049 241.269 29.7785 241.9 29.7305 242.563C29.6876 243.224 29.482 244.009 29.1136 244.919C28.7435 245.824 28.1737 246.951 27.4043 248.3L25.8215 251.331L25.8569 251.44L32.537 249.268L33.4308 252.018L22.0901 255.704ZM44.1874 248.908C42.8497 249.337 41.5933 249.382 40.418 249.043C39.2479 248.702 38.2028 247.996 37.2827 246.927C36.3677 245.856 35.6301 244.45 35.0697 242.708C34.5058 240.973 34.2816 239.412 34.397 238.023C34.5177 236.633 34.9534 235.463 35.7044 234.515C36.4589 233.56 37.5015 232.866 38.8324 232.433C40.1632 232.001 41.412 231.95 42.5787 232.28C43.7506 232.609 44.7941 233.301 45.7092 234.355C46.6226 235.403 47.3586 236.796 47.9173 238.532C48.4845 240.277 48.7104 241.853 48.5948 243.259C48.4844 244.663 48.0563 245.847 47.3104 246.811C46.5644 247.775 45.5235 248.474 44.1874 248.908ZM43.281 246.12C44.1924 245.823 44.771 245.129 45.0169 244.035C45.2627 242.942 45.085 241.48 44.484 239.648C44.0918 238.442 43.641 237.477 43.1316 236.756C42.6273 236.032 42.0842 235.541 41.5024 235.284C40.9258 235.025 40.3345 234.994 39.7287 235.191C38.8225 235.485 38.2448 236.174 37.9956 237.257C37.7464 238.34 37.913 239.786 38.4952 241.595C38.8924 242.817 39.3457 243.797 39.8551 244.537C40.3679 245.269 40.916 245.766 41.4995 246.029C42.0813 246.286 42.6752 246.317 43.281 246.12Z" fill="white"/>
<path d="M329.09 152.704L328.302 150.281L332.261 143.197C332.591 142.575 332.858 142.024 333.063 141.545C333.274 141.064 333.406 140.618 333.461 140.205C333.514 139.787 333.472 139.368 333.336 138.949C333.184 138.483 332.948 138.116 332.626 137.848C332.303 137.575 331.928 137.408 331.501 137.346C331.073 137.279 330.626 137.322 330.16 137.473C329.673 137.631 329.28 137.868 328.982 138.182C328.683 138.497 328.495 138.87 328.418 139.302C328.341 139.733 328.385 140.203 328.55 140.71L325.357 141.748C325.019 140.707 324.961 139.727 325.183 138.807C325.405 137.888 325.872 137.08 326.585 136.385C327.298 135.689 328.209 135.162 329.317 134.801C330.456 134.431 331.514 134.311 332.489 134.44C333.468 134.563 334.308 134.902 335.01 135.459C335.712 136.015 336.212 136.751 336.51 137.668C336.705 138.269 336.778 138.9 336.73 139.563C336.688 140.224 336.482 141.009 336.114 141.919C335.744 142.824 335.174 143.951 334.404 145.3L332.822 148.331L332.857 148.44L339.537 146.268L340.431 149.018L329.09 152.704ZM343.345 144.979L342.484 142.33L345.724 129.709L348.008 128.966L349.2 132.633L347.848 133.072L345.815 141.059L345.856 141.183L355.293 138.115L356.169 140.811L343.345 144.979ZM351.889 145.294L350.718 141.689L350.399 140.496L346.781 129.365L349.934 128.34L355.105 144.248L351.889 145.294Z" fill="white"/>
<path d="M35.2258 205.253C35.6241 207.534 35.3072 209.418 34.2751 210.906C33.2253 212.381 31.5675 213.317 29.3018 213.713L20.2843 215.287L19.6353 211.572L28.6528 209.997C29.8612 209.786 30.7601 209.318 31.3494 208.592C31.936 207.851 32.1331 206.93 31.9405 205.827C31.7532 204.755 31.2581 203.969 30.4551 203.472C29.6521 202.974 28.6465 202.83 27.4381 203.041L18.4206 204.616L17.7716 200.9L26.7891 199.325C29.0549 198.93 30.9316 199.248 32.4193 200.28C33.892 201.315 34.8274 202.973 35.2258 205.253Z" fill="white"/>
<path d="M17.2404 183.433L17 179.691L33.0669 178.659L33.2837 182.033L23.8126 189.948L28.1477 189.623L33.7481 189.263L33.9885 193.004L17.9216 194.037L17.7049 190.663L27.2218 182.745L22.9326 183.067L17.2404 183.433Z" fill="white"/>
<path d="M18.0773 171.758L18.3033 167.993L34.3744 168.957L34.1484 172.723L18.0773 171.758Z" fill="white"/>
<path d="M20.6542 149.319L21.1775 145.189L36.3172 153.784L35.817 157.732L19.0121 162.279L19.5354 158.149L25.2377 156.693L31.7303 155.22L25.8159 152.129L20.6542 149.319Z" fill="white"/>
<path d="M36.8771 139.35L39.0992 130.755L42.1721 131.549L39.0348 143.685L23.4472 139.656L26.5212 127.765L29.572 128.553L27.4132 136.904L30.5753 137.721L32.6189 129.816L35.5582 130.576L33.5146 138.481L36.8771 139.35Z" fill="white"/>
<path d="M41.8766 119.518L41.0792 121.553L46.0258 123.491L44.6494 127.003L29.6596 121.128L32.5217 113.826C32.9469 112.741 33.5331 111.875 34.2804 111.23C35.0133 110.578 35.8519 110.182 36.7963 110.042C37.7407 109.901 38.7125 110.027 39.7118 110.419C40.8539 110.866 41.7143 111.549 42.293 112.468C42.8773 113.372 43.1282 114.434 43.0455 115.653L49.9538 113.47L48.3171 117.645L41.8766 119.518ZM38.395 113.905C37.724 113.642 37.1218 113.644 36.5883 113.913C36.0605 114.167 35.6511 114.665 35.3601 115.408L34.0256 118.813L38.2442 120.466L39.5787 117.061C39.8752 116.305 39.9234 115.656 39.7232 115.117C39.5087 114.572 39.0659 114.168 38.395 113.905Z" fill="white"/>
<path d="M56.1447 104.802C55.5076 105.957 54.7181 106.975 53.7764 107.856C52.842 108.724 51.8445 109.373 50.7838 109.803L49.3322 106.769C51.0012 106.062 52.2951 104.875 53.2138 103.211C53.6731 102.378 53.8952 101.643 53.88 101.004C53.8722 100.352 53.6267 99.8922 53.1434 99.6255C52.687 99.3735 52.2053 99.4054 51.6983 99.7211C51.1913 100.037 50.61 100.662 49.9544 101.596C48.6801 103.397 47.4524 104.558 46.2714 105.08C45.0978 105.588 43.8733 105.49 42.5979 104.786C41.7388 104.312 41.1136 103.652 40.7225 102.806C40.3315 101.959 40.1955 101 40.3146 99.9272C40.4337 98.8546 40.8082 97.7477 41.4379 96.6067C41.9788 95.6267 42.6458 94.7513 43.4389 93.9806C44.2394 93.1965 45.0911 92.5894 45.9939 92.1595L47.4539 94.988C46.0812 95.6665 45.0281 96.6703 44.2946 97.9993C43.8427 98.8182 43.6139 99.5501 43.6082 100.195C43.61 100.826 43.8391 101.268 44.2955 101.52C44.7385 101.765 45.1957 101.745 45.667 101.463C46.1457 101.166 46.7197 100.555 47.3887 99.6282C48.6556 97.8404 49.9175 96.6804 51.1745 96.1482C52.418 95.6086 53.6775 95.6907 54.9528 96.3945C55.8388 96.8835 56.4871 97.5653 56.8976 98.4399C57.2947 99.307 57.433 100.294 57.3125 101.401C57.1786 102.5 56.7893 103.634 56.1447 104.802Z" fill="white"/>
<path d="M49.6417 85.4184L51.8527 82.3623L64.8968 91.7996L62.6857 94.8557L49.6417 85.4184Z" fill="white"/>
<path d="M64.5255 67.1244L67.0524 69.2297L63.9017 73.0112L73.7442 81.2117L71.3296 84.1097L61.4872 75.9091L58.3513 79.6729L55.8244 77.5676L64.5255 67.1244Z" fill="white"/>
<path d="M79.5088 53.338L81.6244 64.9351L86.0118 69.4591L83.3205 72.0691L78.9332 67.5451L67.5715 64.9148L70.7416 61.8405L77.8377 63.6734L76.2892 56.4604L79.5088 53.338Z" fill="white"/>
<path d="M105.894 55.5894C104.471 56.5781 103.021 57.1653 101.545 57.351C100.072 57.5155 98.6764 57.2807 97.3584 56.6467C96.053 56.004 94.9191 54.9901 93.9567 53.6049C92.9943 52.2198 92.4396 50.8034 92.2927 49.3558C92.1584 47.8994 92.4295 46.5161 93.1062 45.2058C93.7867 43.8741 94.8384 42.714 96.2613 41.7253C97.6842 40.7367 99.1321 40.1602 100.605 39.9957C102.082 39.81 103.473 40.0384 104.778 40.6812C106.096 41.3151 107.236 42.3247 108.199 43.7098C109.161 45.095 109.709 46.5157 109.844 47.9721C109.991 49.4197 109.724 50.8094 109.043 52.141C108.367 53.4513 107.317 54.6008 105.894 55.5894ZM103.978 52.8317C104.771 52.2805 105.352 51.625 105.72 50.865C106.092 50.0837 106.223 49.2646 106.113 48.4075C106.016 47.5416 105.678 46.6932 105.101 45.8621C104.523 45.031 103.846 44.4187 103.069 44.0253C102.304 43.6232 101.495 43.4665 100.641 43.5552C99.792 43.6226 98.9707 43.9318 98.1773 44.483C97.384 45.0342 96.8076 45.6961 96.4482 46.4686C96.08 47.2286 95.9446 48.0415 96.0421 48.9073C96.1521 49.7644 96.4959 50.6085 97.0733 51.4396C97.6507 52.2707 98.3219 52.8873 99.0867 53.2894C99.8642 53.6828 100.678 53.8458 101.527 53.7785C102.368 53.6985 103.185 53.3829 103.978 52.8317Z" fill="white"/>
<path d="M122.156 32.1504L114.935 35.861L116.69 39.2774L123.502 35.777L124.963 38.6206L118.151 42.121L120.79 47.2558L117.435 48.9797L110.076 34.6595L120.653 29.225L122.156 32.1504Z" fill="white"/>
<path d="M152.99 35.4031L150.95 33.0226L143.411 35.4972L143.178 38.6236L139.354 39.8788L141.195 22.3295L145.019 21.0743L156.858 34.1336L152.99 35.4031ZM144.222 25.1364L143.689 31.9927L148.671 30.3574L144.222 25.1364Z" fill="white"/>
<path d="M166.65 33.5469C164.379 33.9978 162.488 33.7245 160.977 32.727C159.478 31.7115 158.505 30.0757 158.057 27.8198L156.274 18.841L159.974 18.1065L161.756 27.0852C161.995 28.2884 162.484 29.1762 163.223 29.7486C163.977 30.318 164.903 30.4937 166.001 30.2758C167.069 30.0638 167.842 29.5506 168.322 28.7364C168.801 27.9221 168.921 26.9134 168.682 25.7102L166.9 16.7315L170.6 15.997L172.382 24.9757C172.83 27.2317 172.555 29.1153 171.558 30.6264C170.557 32.1226 168.921 33.0961 166.65 33.5469Z" fill="white"/>
<path d="M188.287 31.8161C186.559 31.9336 185.013 31.6853 183.649 31.0711C182.301 30.4558 181.224 29.5377 180.419 28.3169C179.629 27.095 179.178 25.658 179.065 24.0058C178.953 22.3536 179.213 20.8682 179.846 19.5496C180.493 18.2146 181.443 17.1587 182.696 16.3818C183.949 15.5897 185.409 15.1369 187.076 15.0235C189.447 14.8623 191.539 15.5577 193.35 17.1097L191.19 19.5849C190.099 18.6756 188.834 18.2698 187.396 18.3676C186.432 18.4331 185.59 18.7055 184.869 19.1849C184.163 19.6478 183.63 20.2758 183.269 21.0688C182.923 21.8608 182.784 22.7539 182.851 23.7483C182.919 24.7427 183.178 25.6088 183.628 26.3466C184.093 27.0834 184.707 27.641 185.47 28.0195C186.248 28.3815 187.119 28.5298 188.082 28.4643C188.847 28.4122 189.572 28.2246 190.257 27.9014C190.942 27.5782 191.527 27.1388 192.012 26.5833L194.382 28.8888C192.767 30.6739 190.735 31.6496 188.287 31.8161Z" fill="white"/>
<path d="M213.796 32.7411L208.903 32.4877L203.583 25.8096L203.253 32.1951L199.509 32.0012L200.342 15.9227L204.086 16.1166L203.76 22.4102L209.368 16.3902L214.008 16.6305L206.824 24.158L213.796 32.7411Z" fill="white"/>
<path d="M218.952 18.0636L222.674 18.6745L220.618 31.2029L228.608 32.514L228.056 35.873L216.345 33.9511L218.952 18.0636Z" fill="white"/>
<path d="M243.892 40.6701L243.494 37.5603L235.834 35.4885L233.923 37.9737L230.038 36.9227L241.213 23.2669L245.098 24.3179L247.822 41.733L243.892 40.6701ZM242.202 27.2751L237.991 32.7123L243.053 34.0815L242.202 27.2751Z" fill="white"/>
<path d="M266.555 33.0501L270.023 34.4751L263.903 49.3667L260.776 48.0815L257.818 36.0987L256.208 40.1369L254.075 45.3276L250.607 43.9026L256.727 29.011L259.854 30.2962L262.795 42.3216L264.387 38.326L266.555 33.0501Z" fill="white"/>
<path d="M283.042 42.4636C284.482 43.2815 285.579 44.2838 286.334 45.4704C287.101 46.6647 287.476 47.9618 287.456 49.3616C287.458 50.7557 287.061 52.1527 286.266 53.5526C285.471 54.9526 284.471 56.0155 283.265 56.7414C282.08 57.4615 280.778 57.7977 279.359 57.7501C277.954 57.71 276.531 57.2811 275.091 56.4632L269.351 53.2032L277.302 39.2036L283.042 42.4636ZM276.715 53.6033C277.889 54.2697 279.047 54.434 280.191 54.0963C281.335 53.7586 282.267 52.9564 282.986 51.6898C283.463 50.8498 283.71 50.0285 283.725 49.2259C283.76 48.4175 283.573 47.6762 283.162 47.0021C282.773 46.3223 282.191 45.7628 281.418 45.3236L278.958 43.9264L274.255 52.2062L276.715 53.6033Z" fill="white"/>
</svg>